<svg width="175" height="61" viewBox="0 0 175 61" fill="none" xmlns="http://www.w3.org/2000/svg">
<path d="M174.34 1H1V32.8172C1 32.8172 1.0709 43.0261 1.0709 46.8545C1.0709 50.6828 4.69378 60.3955 17.9252 60.3955C33.2576 60.3955 33.2044 46.8545 33.2044 46.8545V32.8172H36.3547V46.8545C36.3547 50.6828 39.9776 60.3955 53.2091 60.3955C68.7054 60.3955 68.4882 46.8545 68.4882 46.8545V32.8172H71.6385V46.8545C71.6385 50.6828 75.2614 60.3955 88.4929 60.3955C101.724 60.3955 103.772 46.8545 103.772 46.8545V32.8172H106.922V46.8545C106.922 50.6828 110.545 60.3955 123.777 60.3955C139.034 60.3955 139.056 46.8545 139.056 46.8545V32.8172H142.206V46.8545C142.206 50.6828 145.829 60.3955 159.06 60.3955C174.198 60.3955 174.34 46.8545 174.34 46.8545V1Z" stroke="#231F20" stroke-linecap="round" stroke-linejoin="round"/>
<path d="M142.206 41.1829C142.206 45.0112 145.829 54.7239 159.06 54.7239C174.198 54.7239 174.34 41.1829 174.34 41.1829" stroke="#231F20" stroke-linecap="round" stroke-linejoin="round"/>
<path d="M106.922 41.1829C106.922 45.0112 110.545 54.7239 123.777 54.7239C139.034 54.7239 139.056 41.1829 139.056 41.1829" stroke="#231F20" stroke-linecap="round" stroke-linejoin="round"/>
<path d="M71.6385 41.1829C71.6385 45.0112 75.2614 54.7239 88.4929 54.7239C101.724 54.7239 103.772 41.1829 103.772 41.1829" stroke="#231F20" stroke-linecap="round" stroke-linejoin="round"/>
<path d="M1 41.1831C1 45.0115 4.6229 54.7242 17.8543 54.7242C33.3507 54.7242 33.1335 41.1831 33.1335 41.1831" stroke="#231F20" stroke-linecap="round" stroke-linejoin="round"/>
<path d="M8 1V52" stroke="#231F20" stroke-linecap="round" stroke-linejoin="round"/>
<path d="M27 1V52" stroke="#231F20" stroke-linecap="round" stroke-linejoin="round"/>
<path d="M79 1V52" stroke="#231F20" stroke-linecap="round" stroke-linejoin="round"/>
<path d="M97 1V52" stroke="#231F20" stroke-linecap="round" stroke-linejoin="round"/>
<path d="M149 1V52" stroke="#231F20" stroke-linecap="round" stroke-linejoin="round"/>
<path d="M167 1V52" stroke="#231F20" stroke-linecap="round" stroke-linejoin="round"/>
</svg>
