<svg width="185" height="63" viewBox="0 0 185 63" fill="none" xmlns="http://www.w3.org/2000/svg">
<path d="M182.114 38.0299L184.383 36.5174V1H1L1.31317 26.1813L1.37815 35.0299L3.26866 36.5423V58.1213L7.08129 61.5224H41L45.2861 58.3191V36.8657C45.2861 36.4144 45.4654 35.9816 45.7845 35.6625C46.1035 35.3434 46.5363 35.1642 46.9876 35.1642C47.4389 35.1642 47.8716 35.3434 48.1907 35.6625C48.5098 35.9816 48.6891 36.4144 48.6891 36.8657V58.3191L58 61.5224H81.5L90.7343 58.2893L90.7301 36.7948C90.7301 36.3435 90.9094 35.9107 91.2285 35.5916C91.5476 35.2725 91.9804 35.0933 92.4316 35.0933C92.8829 35.0933 93.3157 35.2725 93.6348 35.5916C93.9538 35.9107 94.1331 36.3435 94.1331 36.7948L94.1313 58.1479L97.5 61.5224H132.5L136.036 58.5141L136.032 36.8657C136.032 36.4144 136.212 35.9816 136.531 35.6625C136.85 35.3434 137.283 35.1642 137.734 35.1642C138.185 35.1642 138.618 35.3434 138.937 35.6625C139.256 35.9816 139.435 36.4144 139.435 36.8657L139.434 58.5607L149.5 61.5224H178.5L182.114 58.6825V38.0299Z" stroke="#231F20" stroke-linecap="round" stroke-linejoin="round"/>
<path d="M184.354 26.5586H1.31323" stroke="#231F20" stroke-linecap="round" stroke-linejoin="round"/>
</svg>
