<svg width="184" height="66" viewBox="0 0 184 66" fill="none" xmlns="http://www.w3.org/2000/svg">
<path d="M38.5 62L35.5 65H9.5H4L1 61.5V1H183V61.5L180 65H150.5L147.5 62L144.5 65H114.5L111.5 62L108.5 65H78L75 62L72 65H41L38.5 62ZM38.5 62V39M32.5 1V63M9.5 1.5V32.5M9.5 63.5V32.5M1 32.5C1 32.5 3.59027 32.5 5.25 32.5C6.90973 32.5 9.5 32.5 9.5 32.5M118.5 1V59.5M154 1V61.5M177.5 1V61.5" stroke="black"/>
<path d="M32.5 32.5H118M154 32H141M177.5 32H183M140.5 60V1" stroke="black"/>
<path d="M111.5 62V38.5M147.5 62V38.5" stroke="black"/>
<path d="M1 57L6 63.5H33.5L38.5 58.5" stroke="black"/>
<path d="M38.5 56L41.5667 60H71.9333L75 56.9231" stroke="black"/>
<path d="M74.5 59L77.5667 63H107.933L111 59.9231" stroke="black"/>
<path d="M111.5 56L114.525 60H144.475L147.5 56.9231" stroke="black"/>
<path d="M147.5 58L150.441 62H179.559L183 58.5" stroke="black"/>
<path d="M75 62V38" stroke="black"/>
</svg>
