<svg width="39" height="37" viewBox="0 0 39 37" fill="none" xmlns="http://www.w3.org/2000/svg">
<path d="M39 18.5012L31.573 14.501L38.9993 10.502L19.5 0L0 10.502L7.42618 14.501L0 18.5012L7.42458 22.5002L0 26.498L19.5 37L39 26.498L31.5747 22.5002L39 18.5012ZM24.6481 9.42927L25.2761 8.79244L26.7107 10.2212L28.1446 8.79244L28.7732 9.42927L27.3385 10.8463L28.7732 12.2749L28.1446 12.8997L26.7107 11.4722L25.2761 12.8997L24.6481 12.2749L26.0822 10.8463L24.6481 9.42927ZM16.151 12.653C16.9408 13.2078 17.8856 13.5017 18.8521 13.4935C19.946 13.4935 20.9205 12.9171 20.9205 11.9584C20.9205 11.0811 20.0639 10.462 18.944 10.462C18.4973 10.4628 18.0548 10.5478 17.6397 10.7124V9.46599L19.7769 7.44555H16.4414V5.81789H22.1998V7.23596L20.1827 9.13736C20.8847 9.25309 21.5385 9.56747 22.066 10.043C22.3187 10.2923 22.5163 10.5915 22.6458 10.9214C22.7754 11.2513 22.8341 11.6046 22.8182 11.9584C22.8348 12.4056 22.747 12.8505 22.5618 13.2582C22.3765 13.6659 22.0987 14.0252 21.7504 14.3079C20.9473 14.9088 19.9623 15.2186 18.9583 15.1861C17.9712 15.2128 16.9971 14.9577 16.151 14.4511L16.151 12.653ZM4.76106 18.5012L9.8068 15.7829L19.5 21.0038L29.1918 15.7829L34.2366 18.5012L19.5 26.4376L4.76106 18.5012ZM34.2365 26.498L19.5 34.4343L4.7621 26.498L9.80586 23.7821L19.5 29.003L29.1935 23.7821L34.2365 26.498Z" fill="#C9C9C9"/>
</svg>
