<svg width="23" height="22" viewBox="0 0 23 22" fill="none" xmlns="http://www.w3.org/2000/svg">
<path d="M22.2102 10.7872L18.05 8.54652L22.2099 6.30649L11.2874 0.423828L0.364502 6.30649L4.52426 8.54652L0.364502 10.7872L4.52336 13.0273L0.364502 15.2666L11.2874 21.1493L22.2102 15.2666L18.051 13.0273L22.2102 10.7872ZM14.1711 5.70561L14.5228 5.34889L15.3264 6.14922L16.1296 5.34889L16.4818 5.70561L15.6781 6.49935L16.4818 7.29957L16.1296 7.64959L15.3264 6.84994L14.5228 7.64959L14.1711 7.29957L14.9744 6.49935L14.1711 5.70561ZM9.41142 7.51138C9.85386 7.82211 10.3831 7.98677 10.9245 7.98215C11.5372 7.98215 12.083 7.65929 12.083 7.12231C12.083 6.63085 11.6032 6.28407 10.9759 6.28407C10.7257 6.28456 10.4778 6.33215 10.2454 6.42435V5.72618L11.4425 4.59443H9.57408V3.6827H12.7996V4.47703L11.6698 5.5421C12.063 5.60692 12.4292 5.78302 12.7247 6.04938C12.8663 6.18901 12.9769 6.35662 13.0495 6.54141C13.1221 6.72621 13.155 6.92409 13.1461 7.12231C13.1554 7.37279 13.1062 7.622 13.0024 7.85036C12.8986 8.07872 12.743 8.27999 12.5479 8.43836C12.0981 8.77494 11.5463 8.94849 10.9839 8.93028C10.431 8.94523 9.88541 8.80237 9.41144 8.51855L9.41142 7.51138ZM3.0314 10.7872L5.85775 9.2646L11.2874 12.1891L16.7162 9.2646L19.542 10.7872L11.2874 15.2328L3.0314 10.7872ZM19.542 15.2666L11.2874 19.7121L3.03198 15.2666L5.85723 13.7453L11.2874 16.6698L16.7171 13.7453L19.542 15.2666Z" fill="#C9C9C9"/>
</svg>
