<svg width="38" height="30" viewBox="0 0 38 30" fill="none" xmlns="http://www.w3.org/2000/svg">
<path d="M30.7635 14.7254L37.9992 10.6636L18.9996 0L0 10.6636L7.23547 14.7254L0 18.7861L18.9996 30L38 18.7861L30.7635 14.7254ZM24.016 9.5751L24.6284 8.92844L26.0256 10.3793L27.4228 8.92844L28.0353 9.5751L26.6371 11.0138L28.0353 12.4645L27.4228 13.0992L26.0257 11.6496L24.6284 13.0992L24.016 12.4645L25.4141 11.0138L24.016 9.5751ZM18.6699 5.79358C20.6155 5.79358 22.1641 6.93043 22.1641 8.82181C22.1641 10.4426 20.8755 11.8515 18.423 13.6424H22.2332V15.4204H15.3533V13.828C19.0939 10.9701 20.1908 9.98822 20.1908 8.82184C20.1908 7.99733 19.4642 7.58466 18.6968 7.58466C18.2389 7.57918 17.7851 7.67385 17.3648 7.86251C16.9445 8.05116 16.5672 8.32957 16.2576 8.6796L15.1475 7.3431C15.5953 6.84056 16.1409 6.44253 16.7481 6.17539C17.3554 5.90825 18.0105 5.7781 18.6699 5.79358ZM4.63971 18.7861L9.55503 16.0271L18.9996 21.3286L28.444 16.0271L33.3594 18.7862L18.9996 26.8463L4.63971 18.7861Z" fill="#C9C9C9"/>
</svg>
