<svg width="40" height="37" viewBox="0 0 40 37" fill="none" xmlns="http://www.w3.org/2000/svg">
<path d="M0.302002 1.59866H4.52965C4.52965 1.59866 7.59677 1.34998 8.25991 5.41184C8.92306 9.4737 11.9073 22.9856 11.9073 22.9856C11.9073 22.9856 12.2389 27.379 16.2178 27.379H34.7035" stroke="white" stroke-width="2.33395" stroke-miterlimit="10"/>
<path d="M8.60986 7.34766H37.7708L34.3942 17.8301C34.1417 18.8507 33.5565 19.7581 32.7309 20.409C31.9052 21.0599 30.8863 21.4172 29.835 21.4245H16.9034" stroke="white" stroke-width="2.33395" stroke-miterlimit="10"/>
<path d="M14.7149 36.8791C16.4206 36.8791 17.8034 35.4963 17.8034 33.7906C17.8034 32.0849 16.4206 30.7021 14.7149 30.7021C13.0092 30.7021 11.6265 32.0849 11.6265 33.7906C11.6265 35.4963 13.0092 36.8791 14.7149 36.8791Z" fill="white"/>
<path d="M31.1866 36.8791C32.8923 36.8791 34.275 35.4963 34.275 33.7906C34.275 32.0849 32.8923 30.7021 31.1866 30.7021C29.4809 30.7021 28.0981 32.0849 28.0981 33.7906C28.0981 35.4963 29.4809 36.8791 31.1866 36.8791Z" fill="white"/>
</svg>
