<svg width="52" height="48" viewBox="0 0 52 48" fill="none" xmlns="http://www.w3.org/2000/svg">
<path d="M0.838623 1.82802H6.27274C6.27274 1.82802 10.2151 1.50837 11.0675 6.72939C11.9199 11.9504 15.7558 29.3183 15.7558 29.3183C15.7558 29.3183 16.182 34.9655 21.2965 34.9655H45.0575" stroke="white" stroke-width="3" stroke-miterlimit="10"/>
<path d="M11.5173 9.2168H49.0001L44.6599 22.6907C44.3354 24.0026 43.5831 25.1689 42.5219 26.0055C41.4607 26.8422 40.151 27.3014 38.7996 27.3108H22.1776" stroke="white" stroke-width="3" stroke-miterlimit="10"/>
<path d="M19.3646 47.1779C21.5571 47.1779 23.3344 45.4006 23.3344 43.2081C23.3344 41.0156 21.5571 39.2383 19.3646 39.2383C17.1721 39.2383 15.3948 41.0156 15.3948 43.2081C15.3948 45.4006 17.1721 47.1779 19.3646 47.1779Z" fill="white"/>
<path d="M40.5371 47.1779C42.7296 47.1779 44.5069 45.4006 44.5069 43.2081C44.5069 41.0156 42.7296 39.2383 40.5371 39.2383C38.3446 39.2383 36.5673 41.0156 36.5673 43.2081C36.5673 45.4006 38.3446 47.1779 40.5371 47.1779Z" fill="white"/>
</svg>
