<svg width="28" height="40" viewBox="0 0 28 40" fill="none" xmlns="http://www.w3.org/2000/svg">
<path d="M26.6187 13.9365V13.929L26.6186 13.9215C26.5759 10.6108 25.22 7.45253 22.8492 5.1413C20.4818 2.83349 17.296 1.55885 13.9905 1.59653C10.685 1.55885 7.4992 2.83349 5.13184 5.1413C2.76098 7.45253 1.40512 10.6108 1.36242 13.9215L1.36232 13.929V13.9365C1.36232 15.3102 1.82995 17.1504 2.50021 19.1036C3.18268 21.0924 4.12022 23.3232 5.15084 25.5271C7.20396 29.9175 9.68008 34.3141 11.3432 36.5692L11.3432 36.5693L11.3487 36.5765C11.6562 36.9868 12.055 37.3198 12.5136 37.5491C12.9721 37.7785 13.4778 37.8979 13.9905 37.8979C14.5032 37.8979 15.0089 37.7785 15.4674 37.5491C15.926 37.3198 16.3248 36.9868 16.6324 36.5765L16.6324 36.5766L16.6378 36.5692C18.3009 34.3141 20.7771 29.9175 22.8302 25.5271C23.8608 23.3232 24.7983 21.0924 25.4808 19.1036C26.1511 17.1504 26.6187 15.3102 26.6187 13.9365Z" stroke="white" stroke-width="2.33395" stroke-miterlimit="10"/>
<path d="M14.032 20.0171C17.2083 20.0171 19.7832 17.4422 19.7832 14.2659C19.7832 11.0896 17.2083 8.51465 14.032 8.51465C10.8557 8.51465 8.28076 11.0896 8.28076 14.2659C8.28076 17.4422 10.8557 20.0171 14.032 20.0171Z" fill="white"/>
</svg>
