<svg width="37" height="51" viewBox="0 0 37 51" fill="none" xmlns="http://www.w3.org/2000/svg">
<path d="M34.6633 17.8626V17.8529L34.6631 17.8433C34.6083 13.5877 32.8655 9.5282 29.818 6.5574C26.7751 3.59099 22.6801 1.95261 18.4313 2.00104C14.1825 1.95261 10.0875 3.59099 7.04459 6.5574C3.99714 9.5282 2.25435 13.5877 2.19947 17.8433L2.19934 17.8529V17.8626C2.19934 19.6282 2.80042 21.9936 3.66195 24.5042C4.53919 27.0606 5.74427 29.928 7.06901 32.7608C9.70804 38.4041 12.8908 44.0555 15.0286 46.9541L15.0285 46.9542L15.0355 46.9635C15.4308 47.4908 15.9435 47.9189 16.5329 48.2137C17.1223 48.5085 17.7723 48.6619 18.4313 48.6619C19.0903 48.6619 19.7403 48.5085 20.3297 48.2137C20.9191 47.9189 21.4318 47.4908 21.8271 46.9635L21.8271 46.9635L21.8341 46.9541C23.9718 44.0555 27.1546 38.4041 29.7936 32.7608C31.1183 29.928 32.3234 27.0606 33.2007 24.5042C34.0622 21.9936 34.6633 19.6282 34.6633 17.8626Z" stroke="white" stroke-width="3" stroke-miterlimit="10"/>
<path d="M18.4847 25.6776C22.5674 25.6776 25.8772 22.3678 25.8772 18.2851C25.8772 14.2023 22.5674 10.8926 18.4847 10.8926C14.4019 10.8926 11.0922 14.2023 11.0922 18.2851C11.0922 22.3678 14.4019 25.6776 18.4847 25.6776Z" fill="white"/>
</svg>
