<svg width="103" height="37" viewBox="0 0 103 37" fill="none" xmlns="http://www.w3.org/2000/svg">
<path d="M21.7503 34.6015L20.0765 36.2753H5.56974H2.501L0.827148 34.3225V0.566406H102.374V34.3225L100.7 36.2753H84.2409L82.5671 34.6015L80.8932 36.2753H64.1547L62.4808 34.6015L60.8069 36.2753H43.7894L42.1156 34.6015L40.4417 36.2753H23.1452L21.7503 34.6015ZM21.7503 34.6015V21.7686M18.4026 0.566406V35.1594M5.56974 0.845382V18.1419M5.56974 34.8647V18.1419M0.827148 18.1419C0.827148 18.1419 2.27239 18.1419 3.19844 18.1419C4.12449 18.1419 5.56974 18.1419 5.56974 18.1419M66.3865 0.566406V33.2066M86.1937 0.566406V34.3225M99.3056 0.566406V34.3225" stroke="black"/>
<path d="M18.4026 18.1419H66.1075M86.1937 17.8629H78.9403M99.3056 17.8629H102.374M78.6614 33.4856V0.566406" stroke="black"/>
<path d="M62.481 34.6011V21.4893M82.5672 34.6011V21.4893" stroke="black"/>
<path d="M0.827148 31.8115L3.61691 34.8806H18.9606L21.7503 32.6485" stroke="black"/>
<path d="M21.7505 31.2534L23.4615 33.4852H40.4047L42.1157 31.7685" stroke="black"/>
<path d="M42.0942 32.9941L44.1962 34.9433L60.5913 34.9434L62.4639 32.9941" stroke="black"/>
<path d="M62.481 31.2534L64.1686 33.4852H80.8796L82.5672 31.7685" stroke="black"/>
<path d="M82.5671 32.3696L84.2079 34.6014H100.455L102.374 32.6486" stroke="black"/>
<path d="M42.1157 34.6013V21.2104" stroke="black"/>
</svg>
