<svg width="104" height="35" viewBox="0 0 104 35" fill="none" xmlns="http://www.w3.org/2000/svg">
<path d="M102.057 21.3508L103.323 20.5069V0.689941H1.00366L1.17839 14.7399L1.21465 19.6769L2.26946 20.5208V32.5609L4.39673 34.4585H23.3217L25.7132 32.6713V20.7012C25.7132 20.4495 25.8132 20.208 25.9912 20.03C26.1693 19.8519 26.4107 19.7519 26.6625 19.7519C26.9143 19.7519 27.1558 19.8519 27.3338 20.03C27.5118 20.208 27.6119 20.4495 27.6119 20.7012V32.6713L32.8069 34.4585H45.9188L51.071 32.6546L51.0687 20.6617C51.0687 20.4099 51.1687 20.1684 51.3468 19.9904C51.5248 19.8124 51.7663 19.7123 52.0181 19.7123C52.2699 19.7123 52.5113 19.8124 52.6894 19.9904C52.8674 20.1684 52.9674 20.4099 52.9674 20.6617L52.9664 32.5757L54.846 34.4585H74.3743L76.3474 32.7801L76.3452 20.7012C76.3452 20.4495 76.4452 20.208 76.6232 20.03C76.8013 19.8519 77.0427 19.7519 77.2945 19.7519C77.5463 19.7519 77.7878 19.8519 77.9658 20.03C78.1439 20.208 78.2439 20.4495 78.2439 20.7012L78.2429 32.806L83.8595 34.4585H100.04L102.057 32.874V21.3508Z" stroke="#231F20" stroke-linecap="round" stroke-linejoin="round"/>
<path d="M103.307 14.9502H1.17847" stroke="#231F20" stroke-linecap="round" stroke-linejoin="round"/>
</svg>
