<svg width="98" height="35" viewBox="0 0 98 35" fill="none" xmlns="http://www.w3.org/2000/svg">
<path d="M97.4119 1.27539H0.696777V19.0278C0.696777 19.0278 0.736334 24.7239 0.736334 26.86C0.736334 28.996 2.75773 34.4152 10.1402 34.4152C18.695 34.4152 18.6652 26.86 18.6652 26.86V19.0278H20.423V26.86C20.423 28.996 22.4444 34.4152 29.8269 34.4152C38.4731 34.4152 38.3519 26.86 38.3519 26.86V19.0278H40.1097V26.86C40.1097 28.996 42.1311 34.4152 49.5136 34.4152C56.8961 34.4152 58.0386 26.86 58.0386 26.86V19.0278H59.7963V26.86C59.7963 28.996 61.8177 34.4152 69.2002 34.4152C77.7129 34.4152 77.7252 26.86 77.7252 26.86V19.0278H79.4829V26.86C79.4829 28.996 81.5043 34.4152 88.8868 34.4152C97.3328 34.4152 97.4119 26.86 97.4119 26.86V1.27539Z" stroke="#231F20" stroke-linecap="round" stroke-linejoin="round"/>
<path d="M79.4829 23.6958C79.4829 25.8318 81.5043 31.251 88.8868 31.251C97.3328 31.251 97.4118 23.6958 97.4118 23.6958" stroke="#231F20" stroke-linecap="round" stroke-linejoin="round"/>
<path d="M59.7964 23.6958C59.7964 25.8318 61.8178 31.251 69.2003 31.251C77.713 31.251 77.7253 23.6958 77.7253 23.6958" stroke="#231F20" stroke-linecap="round" stroke-linejoin="round"/>
<path d="M40.1096 23.6958C40.1096 25.8318 42.131 31.251 49.5135 31.251C56.896 31.251 58.0385 23.6958 58.0385 23.6958" stroke="#231F20" stroke-linecap="round" stroke-linejoin="round"/>
<path d="M0.696777 23.6958C0.696777 25.8318 2.71818 31.251 10.1007 31.251C18.7469 31.251 18.6257 23.6958 18.6257 23.6958" stroke="#231F20" stroke-linecap="round" stroke-linejoin="round"/>
<path d="M4.60254 1.27539V29.7309" stroke="#231F20" stroke-linecap="round" stroke-linejoin="round"/>
<path d="M15.2036 1.27539V29.7309" stroke="#231F20" stroke-linecap="round" stroke-linejoin="round"/>
<path d="M44.217 1.27539V29.7309" stroke="#231F20" stroke-linecap="round" stroke-linejoin="round"/>
<path d="M54.2603 1.27539V29.7309" stroke="#231F20" stroke-linecap="round" stroke-linejoin="round"/>
<path d="M83.2737 1.27539V29.7309" stroke="#231F20" stroke-linecap="round" stroke-linejoin="round"/>
<path d="M93.3169 1.27539V29.7309" stroke="#231F20" stroke-linecap="round" stroke-linejoin="round"/>
</svg>
