<svg width="183" height="66" viewBox="0 0 183 66" fill="none" xmlns="http://www.w3.org/2000/svg">
<path d="M38 62L35 65H9H3.5L0.5 61.5V1H182.5V61.5L179.5 65H150L147 62L144 65H114L111 62L108 65H77.5L74.5 62L71.5 65H40.5L38 62ZM38 62V39M32 1V63M9 1.5V32.5M9 63.5V32.5M0.5 32.5C0.5 32.5 3.09027 32.5 4.75 32.5C6.40973 32.5 9 32.5 9 32.5M118 1V59.5M153.5 1V61.5M177 1V61.5" stroke="black"/>
<path d="M32 32.5H117.5M153.5 32H140.5M177 32H182.5M140 60V1" stroke="black"/>
<path d="M111 62V38.5M147 62V38.5" stroke="black"/>
<path d="M0.5 57L5.5 63.5H33L38 58.5" stroke="black"/>
<path d="M38 56L41.0667 60H71.4333L74.5 56.9231" stroke="black"/>
<path d="M74 59L77.0667 63H107.433L110.5 59.9231" stroke="black"/>
<path d="M111 56L114.025 60H143.975L147 56.9231" stroke="black"/>
<path d="M147 58L149.941 62H179.059L182.5 58.5" stroke="black"/>
<path d="M74.5 62V38" stroke="black"/>
</svg>
