<svg width="46" height="42" viewBox="0 0 46 42" fill="none" xmlns="http://www.w3.org/2000/svg">
<path d="M33.3851 9.6665H12.9648V31.8097H33.3851V9.6665Z" stroke="#707070" stroke-miterlimit="10"/>
<path d="M32.0773 11.1108H14.2737V30.3637H32.0773V11.1108Z" stroke="#707070" stroke-miterlimit="10"/>
<path d="M0.220459 9.6665H12.9653" stroke="#707070" stroke-miterlimit="10"/>
<path d="M0.220459 5.2373H45.7912" stroke="#707070" stroke-miterlimit="10"/>
<path d="M0.220459 0.808594H45.7912" stroke="#707070" stroke-miterlimit="10"/>
<path d="M0.220459 22.9526H12.9653" stroke="#707070" stroke-miterlimit="10"/>
<path d="M0.220459 18.5225H12.9653" stroke="#707070" stroke-miterlimit="10"/>
<path d="M0.220459 14.0947H12.9653" stroke="#707070" stroke-miterlimit="10"/>
<path d="M0.220459 36.2378H45.7912" stroke="#707070" stroke-miterlimit="10"/>
<path d="M0.220459 31.8086H12.9653" stroke="#707070" stroke-miterlimit="10"/>
<path d="M0.220459 27.3799H12.9653" stroke="#707070" stroke-miterlimit="10"/>
<path d="M33.385 9.6665H45.7907" stroke="#707070" stroke-miterlimit="10"/>
<path d="M33.385 22.9526H45.7907" stroke="#707070" stroke-miterlimit="10"/>
<path d="M33.385 18.5225H45.7907" stroke="#707070" stroke-miterlimit="10"/>
<path d="M33.385 14.0947H45.7907" stroke="#707070" stroke-miterlimit="10"/>
<path d="M33.385 31.8086H45.7907" stroke="#707070" stroke-miterlimit="10"/>
<path d="M33.385 27.3799H45.7907" stroke="#707070" stroke-miterlimit="10"/>
<path d="M0.220459 40.6665H45.7912" stroke="#707070" stroke-miterlimit="10"/>
<path d="M23.1753 5.2373V7.88606" stroke="#707070" stroke-miterlimit="10"/>
<path d="M23.1753 33.5239V36.0469" stroke="#707070" stroke-miterlimit="10"/>
<path d="M3.93604 5.2373V9.60036" stroke="#707070" stroke-miterlimit="10"/>
<path d="M42.022 5.2373V9.60036" stroke="#707070" stroke-miterlimit="10"/>
<path d="M36.3625 0.874512V5.23756" stroke="#707070" stroke-miterlimit="10"/>
<path d="M10.2888 0.874512V5.23756" stroke="#707070" stroke-miterlimit="10"/>
<path d="M36.3625 36.3037V40.6668" stroke="#707070" stroke-miterlimit="10"/>
<path d="M10.2888 36.3037V40.6668" stroke="#707070" stroke-miterlimit="10"/>
<path d="M3.93604 14.0947V18.4578" stroke="#707070" stroke-miterlimit="10"/>
<path d="M23.7239 11.1108V30.3637" stroke="#707070" stroke-miterlimit="10"/>
<path d="M22.3816 11.1108V30.3637" stroke="#707070" stroke-miterlimit="10"/>
<path d="M42.022 14.0947V18.4578" stroke="#707070" stroke-miterlimit="10"/>
<path d="M3.93604 22.9526V27.3157" stroke="#707070" stroke-miterlimit="10"/>
<path d="M42.022 22.9526V27.3157" stroke="#707070" stroke-miterlimit="10"/>
<path d="M3.93604 31.6836V36.0467" stroke="#707070" stroke-miterlimit="10"/>
<path d="M42.022 31.6836V36.0467" stroke="#707070" stroke-miterlimit="10"/>
<path d="M9.74268 31.8086V33.5231H36.3624V31.8086" stroke="#707070" stroke-miterlimit="10"/>
<path d="M9.74268 9.60077V7.88623H36.3624V9.60077" stroke="#707070" stroke-miterlimit="10"/>
</svg>
