<svg width="52" height="45" viewBox="0 0 52 45" fill="none" xmlns="http://www.w3.org/2000/svg">
<path d="M6.72315 42.5701C6.61472 43.3307 5.31192 43.9439 3.81325 43.9397C2.31459 43.9355 1.1876 43.3154 1.29603 42.5548L9.05745 10.3149H41.4855L33.8588 42.6466C33.7504 43.4073 32.4476 44.0205 30.9489 44.0162C29.4502 44.012 28.3232 43.3919 28.4317 42.6313" stroke="#707070" stroke-miterlimit="10"/>
<path d="M13.3597 14.9592C13.252 15.7198 11.9579 16.333 10.4693 16.3288C8.9806 16.3246 7.86112 15.7045 7.96883 14.9438" stroke="#707070" stroke-miterlimit="10"/>
<path d="M18.7506 14.9742C18.6429 15.7349 17.3488 16.3482 15.8601 16.3439C14.3715 16.3397 13.252 15.7197 13.3597 14.959" stroke="#707070" stroke-miterlimit="10"/>
<path d="M24.1415 14.9899C24.0337 15.7506 22.7396 16.3638 21.251 16.3596C19.7623 16.3553 18.6429 15.7353 18.7506 14.9746" stroke="#707070" stroke-miterlimit="10"/>
<path d="M29.5323 15.006C29.4246 15.7667 28.1305 16.3799 26.6419 16.3757C25.1532 16.3715 24.0337 15.7514 24.1414 14.9907" stroke="#707070" stroke-miterlimit="10"/>
<path d="M34.9234 15.0212C34.8157 15.7818 33.5216 16.395 32.033 16.3908C30.5443 16.3866 29.4248 15.7665 29.5326 15.0059" stroke="#707070" stroke-miterlimit="10"/>
<path d="M40.3141 15.0363C40.2064 15.797 38.9122 16.4102 37.4236 16.406C35.9349 16.4017 34.8155 15.7817 34.9232 15.021" stroke="#707070" stroke-miterlimit="10"/>
<path d="M12.1551 20.1652C12.0474 20.9259 10.7533 21.5391 9.26466 21.5349C7.77601 21.5306 6.65653 20.9106 6.76425 20.1499" stroke="#707070" stroke-miterlimit="10"/>
<path d="M17.546 20.1818C17.4383 20.9425 16.1442 21.5557 14.6555 21.5515C13.1669 21.5472 12.0474 20.9272 12.1551 20.1665" stroke="#707070" stroke-miterlimit="10"/>
<path d="M22.9369 20.1965C22.8292 20.9571 21.535 21.5703 20.0464 21.5661C18.5577 21.5619 17.4383 20.9418 17.546 20.1812" stroke="#707070" stroke-miterlimit="10"/>
<path d="M28.328 20.2116C28.2203 20.9723 26.9262 21.5855 25.4375 21.5813C23.9489 21.577 22.8294 20.957 22.9371 20.1963" stroke="#707070" stroke-miterlimit="10"/>
<path d="M33.7186 20.2267C33.6109 20.9874 32.3168 21.6006 30.8281 21.5964C29.3395 21.5922 28.22 20.9721 28.3277 20.2114" stroke="#707070" stroke-miterlimit="10"/>
<path d="M39.1095 20.2418C39.0017 21.0025 37.7077 21.6157 36.219 21.6115C34.7304 21.6073 33.6109 20.9872 33.7186 20.2266" stroke="#707070" stroke-miterlimit="10"/>
<path d="M10.7953 25.7663C10.6876 26.5269 9.39345 27.1402 7.9048 27.1359C6.41615 27.1317 5.29667 26.5117 5.40438 25.751" stroke="#707070" stroke-miterlimit="10"/>
<path d="M16.1861 25.7814C16.0784 26.5421 14.7843 27.1553 13.2957 27.1511C11.807 27.1468 10.6875 26.5268 10.7952 25.7661" stroke="#707070" stroke-miterlimit="10"/>
<path d="M21.577 25.7966C21.4693 26.5572 20.1752 27.1704 18.6865 27.1662C17.1979 27.162 16.0784 26.5419 16.1861 25.7812" stroke="#707070" stroke-miterlimit="10"/>
<path d="M26.9679 25.8117C26.8602 26.5724 25.5661 27.1856 24.0774 27.1813C22.5888 27.1771 21.4693 26.5571 21.577 25.7964" stroke="#707070" stroke-miterlimit="10"/>
<path d="M32.3587 25.8263C32.251 26.587 30.957 27.2002 29.4683 27.196C27.9796 27.1918 26.8601 26.5717 26.9679 25.811" stroke="#707070" stroke-miterlimit="10"/>
<path d="M37.7496 25.8429C37.6419 26.6036 36.3478 27.2168 34.8591 27.2126C33.3705 27.2084 32.251 26.5883 32.3587 25.8276" stroke="#707070" stroke-miterlimit="10"/>
<path d="M9.45981 31.1774C9.35211 31.9381 8.058 32.5513 6.56935 32.5471C5.0807 32.5428 3.96121 31.9228 4.06893 31.1621" stroke="#707070" stroke-miterlimit="10"/>
<path d="M14.8507 31.1921C14.743 31.9527 13.4489 32.566 11.9602 32.5617C10.4716 32.5575 9.35208 31.9374 9.4598 31.1768" stroke="#707070" stroke-miterlimit="10"/>
<path d="M20.2416 31.2077C20.1338 31.9683 18.8397 32.5816 17.3511 32.5773C15.8624 32.5731 14.743 31.9531 14.8507 31.1924" stroke="#707070" stroke-miterlimit="10"/>
<path d="M25.6324 31.2228C25.5247 31.9835 24.2306 32.5967 22.742 32.5925C21.2533 32.5883 20.1338 31.9682 20.2415 31.2075" stroke="#707070" stroke-miterlimit="10"/>
<path d="M31.0233 31.2375C30.9156 31.9981 29.6215 32.6114 28.1328 32.6071C26.6442 32.6029 25.5247 31.9828 25.6324 31.2222" stroke="#707070" stroke-miterlimit="10"/>
<path d="M36.4142 31.2541C36.3065 32.0147 35.0123 32.628 33.5237 32.6237C32.035 32.6195 30.9156 31.9994 31.0233 31.2388" stroke="#707070" stroke-miterlimit="10"/>
<path d="M8.09604 36.9523C7.98833 37.713 6.69422 38.3262 5.20557 38.322C3.71692 38.3177 2.59746 37.6977 2.70516 36.937" stroke="#707070" stroke-miterlimit="10"/>
<path d="M13.4869 36.9675C13.3792 37.7281 12.0851 38.3413 10.5964 38.3371C9.1078 38.3329 7.98832 37.7128 8.09603 36.9521" stroke="#707070" stroke-miterlimit="10"/>
<path d="M18.8778 36.9841C18.7701 37.7447 17.476 38.3579 15.9873 38.3537C14.4987 38.3495 13.3792 37.7294 13.4869 36.9688" stroke="#707070" stroke-miterlimit="10"/>
<path d="M24.2689 36.9987C24.1612 37.7594 22.8671 38.3726 21.3784 38.3684C19.8898 38.3641 18.7703 37.7441 18.878 36.9834" stroke="#707070" stroke-miterlimit="10"/>
<path d="M29.6598 37.0138C29.5521 37.7745 28.2579 38.3877 26.7693 38.3835C25.2807 38.3793 24.1612 37.7592 24.2689 36.9985" stroke="#707070" stroke-miterlimit="10"/>
<path d="M35.0506 37.0295C34.9429 37.7901 33.6488 38.4033 32.1602 38.3991C30.6715 38.3949 29.552 37.7748 29.6598 37.0142" stroke="#707070" stroke-miterlimit="10"/>
<path d="M12.1504 42.5856C12.042 43.3463 10.7392 43.9595 9.24051 43.9553C7.74185 43.9511 6.61485 43.331 6.72328 42.5703" stroke="#707070" stroke-miterlimit="10"/>
<path d="M17.5774 42.6003C17.469 43.3609 16.1662 43.9741 14.6675 43.9699C13.1688 43.9657 12.0418 43.3456 12.1503 42.585" stroke="#707070" stroke-miterlimit="10"/>
<path d="M23.0047 42.6154C22.8962 43.3761 21.5934 43.9893 20.0948 43.9851C18.5961 43.9808 17.4691 43.3608 17.5775 42.6001" stroke="#707070" stroke-miterlimit="10"/>
<path d="M28.4317 42.6301C28.3232 43.3907 27.0204 44.0039 25.5218 43.9997C24.0231 43.9955 22.8961 43.3754 23.0045 42.6147" stroke="#707070" stroke-miterlimit="10"/>
<path d="M50.5783 1.4585H11.2323L10.3779 5.10989H49.6875L50.5783 1.4585Z" stroke="#707070" stroke-miterlimit="10"/>
<path d="M41.0644 13.1113H47.8276L46.8906 16.8405H40.1323" stroke="#707070" stroke-miterlimit="10"/>
<path d="M38.1897 24.8418H45.0264L44.2085 28.571H37.2576" stroke="#707070" stroke-miterlimit="10"/>
<path d="M35.3933 36.5732H42.2293L41.4191 40.3024H34.4612" stroke="#707070" stroke-miterlimit="10"/>
<path d="M14.9616 5.10889L13.874 10.3139" stroke="#707070" stroke-miterlimit="10"/>
<path d="M30.5766 5.10889L29.489 10.3139" stroke="#707070" stroke-miterlimit="10"/>
<path d="M41.4856 28.5708L39.6284 36.5725" stroke="#707070" stroke-miterlimit="10"/>
<path d="M44.2082 16.8403L42.3325 24.9219" stroke="#707070" stroke-miterlimit="10"/>
<path d="M46.9309 5.10889L45.0737 13.1106" stroke="#707070" stroke-miterlimit="10"/>
</svg>
