<?xml version="1.0" encoding="UTF-8"?>
<svg xmlns="http://www.w3.org/2000/svg" xmlns:xlink="http://www.w3.org/1999/xlink" width="40px" height="37px" viewBox="0 0 40 37" version="1.1">
<g id="surface1">
<path style=" stroke:none;fill-rule:nonzero;fill:rgb(78.823529%,78.823529%,78.823529%);fill-opacity:1;" d="M 31.71875 18.160156 L 39.140625 13.152344 L 19.652344 0 L 0.167969 13.152344 L 7.589844 18.160156 L 0.167969 23.167969 L 19.652344 37 L 39.140625 23.167969 Z M 24.800781 11.808594 L 25.425781 11.011719 L 26.859375 12.800781 L 28.292969 11.011719 L 28.921875 11.808594 L 27.488281 13.582031 L 28.921875 15.371094 L 28.292969 16.15625 L 26.859375 14.367188 L 25.425781 16.15625 L 24.800781 15.371094 L 26.234375 13.582031 Z M 19.316406 7.144531 C 21.3125 7.144531 22.898438 8.546875 22.898438 10.878906 C 22.898438 12.878906 21.578125 14.617188 19.0625 16.824219 L 22.96875 16.824219 L 22.96875 19.019531 L 15.914062 19.019531 L 15.914062 17.054688 C 19.75 13.53125 20.875 12.320312 20.875 10.878906 C 20.875 9.863281 20.128906 9.355469 19.34375 9.355469 C 18.875 9.347656 18.410156 9.464844 17.976562 9.695312 C 17.546875 9.929688 17.160156 10.273438 16.839844 10.703125 L 15.703125 9.054688 C 16.164062 8.4375 16.722656 7.945312 17.34375 7.617188 C 17.96875 7.285156 18.640625 7.125 19.316406 7.144531 Z M 4.925781 23.167969 L 9.96875 19.765625 L 19.652344 26.304688 L 29.339844 19.765625 L 34.382812 23.167969 L 19.652344 33.109375 Z M 4.925781 23.167969 "/>
</g>
</svg>
