<svg width="39" height="30" viewBox="0 0 39 30" fill="none" xmlns="http://www.w3.org/2000/svg">
<path d="M30.9266 14.7254L38.1623 10.6636L19.1627 0L0.163086 10.6636L7.39856 14.7254L0.163086 18.7861L19.1627 30L38.1631 18.7861L30.9266 14.7254ZM24.179 9.5751L24.7915 8.92844L26.1887 10.3793L27.5859 8.92844L28.1983 9.5751L26.8002 11.0138L28.1984 12.4645L27.5859 13.0992L26.1887 11.6496L24.7915 13.0992L24.1791 12.4645L25.5772 11.0138L24.179 9.5751ZM18.8329 5.79358C20.7786 5.79358 22.3272 6.93043 22.3272 8.82181C22.3272 10.4426 21.0385 11.8515 18.5861 13.6424H22.3963V15.4204H15.5164V13.828C19.257 10.9701 20.3539 9.98822 20.3539 8.82184C20.3539 7.99733 19.6273 7.58466 18.8599 7.58466C18.402 7.57918 17.9482 7.67385 17.5279 7.86251C17.1076 8.05116 16.7303 8.32957 16.4206 8.6796L15.3106 7.3431C15.7584 6.84056 16.304 6.44253 16.9112 6.17539C17.5185 5.90825 18.1735 5.7781 18.8329 5.79358ZM4.8028 18.7861L9.71811 16.0271L19.1627 21.3286L28.6071 16.0271L33.5225 18.7862L19.1627 26.8463L4.8028 18.7861Z" fill="#C9C9C9"/>
</svg>
