<svg width="40" height="37" viewBox="0 0 40 37" fill="none" xmlns="http://www.w3.org/2000/svg">
<path d="M39.1631 18.5012L31.7361 14.501L39.1624 10.502L19.6631 0L0.163086 10.502L7.58927 14.501L0.163086 18.5012L7.58767 22.5002L0.163086 26.498L19.6631 37L39.1631 26.498L31.7378 22.5002L39.1631 18.5012ZM24.8112 9.42927L25.4391 8.79244L26.8738 10.2212L28.3077 8.79244L28.9363 9.42927L27.5016 10.8463L28.9363 12.2749L28.3077 12.8997L26.8738 11.4722L25.4391 12.8997L24.8112 12.2749L26.2453 10.8463L24.8112 9.42927ZM16.314 12.653C17.1039 13.2078 18.0487 13.5017 19.0152 13.4935C20.1091 13.4935 21.0836 12.9171 21.0836 11.9584C21.0836 11.0811 20.227 10.462 19.1071 10.462C18.6604 10.4628 18.2178 10.5478 17.8028 10.7124V9.46599L19.94 7.44555H16.6044V5.81789H22.3629V7.23596L20.3458 9.13736C21.0478 9.25309 21.7016 9.56747 22.2291 10.043C22.4818 10.2923 22.6793 10.5915 22.8089 10.9214C22.9385 11.2513 22.9972 11.6046 22.9813 11.9584C22.9979 12.4056 22.9101 12.8505 22.7248 13.2582C22.5396 13.6659 22.2618 14.0252 21.9135 14.3079C21.1104 14.9088 20.1254 15.2186 19.1213 15.1861C18.1343 15.2128 17.1602 14.9577 16.3141 14.4511L16.314 12.653ZM4.92415 18.5012L9.96988 15.7829L19.6631 21.0038L29.3549 15.7829L34.3996 18.5012L19.6631 26.4376L4.92415 18.5012ZM34.3996 26.498L19.6631 34.4343L4.92518 26.498L9.96895 23.7821L19.6631 29.003L29.3566 23.7821L34.3996 26.498Z" fill="#C9C9C9"/>
</svg>
