<svg width="26" height="25" viewBox="0 0 26 25" fill="none" xmlns="http://www.w3.org/2000/svg">
<path d="M0 1.67475H2.74452C2.74452 1.67475 4.73565 1.51506 5.16616 4.12345C5.59666 6.73185 7.53398 15.4088 7.53398 15.4088C7.53398 15.4088 7.74924 18.2301 10.3323 18.2301H22.3329" stroke="white" stroke-width="2" stroke-miterlimit="10"/>
<path d="M5.39349 5.36572H24.3243L22.1323 12.0972C21.9684 12.7526 21.5885 13.3353 21.0525 13.7533C20.5165 14.1713 19.855 14.4007 19.1725 14.4054H10.7775" stroke="white" stroke-width="2" stroke-miterlimit="10"/>
<path d="M9.35642 24.3309C10.4637 24.3309 11.3614 23.4429 11.3614 22.3476C11.3614 21.2522 10.4637 20.3643 9.35642 20.3643C8.2491 20.3643 7.35144 21.2522 7.35144 22.3476C7.35144 23.4429 8.2491 24.3309 9.35642 24.3309Z" fill="white"/>
<path d="M20.0498 24.3309C21.1571 24.3309 22.0548 23.4429 22.0548 22.3476C22.0548 21.2522 21.1571 20.3643 20.0498 20.3643C18.9425 20.3643 18.0448 21.2522 18.0448 22.3476C18.0448 23.4429 18.9425 24.3309 20.0498 24.3309Z" fill="white"/>
</svg>
