<svg width="22" height="21" viewBox="0 0 22 21" fill="none" xmlns="http://www.w3.org/2000/svg">
<path d="M0.0367432 1.38835H2.39788C2.39788 1.38835 4.11087 1.25097 4.48124 3.495C4.8516 5.73902 6.5183 13.2039 6.5183 13.2039C6.5183 13.2039 6.70349 15.6311 8.92574 15.6311H19.25" stroke="white" stroke-width="1.5" stroke-miterlimit="10"/>
<path d="M4.67676 4.56396H20.9631L19.0773 10.3552C18.9363 10.919 18.6094 11.4203 18.1483 11.7799C17.6872 12.1395 17.1182 12.3369 16.531 12.3409H9.30868" stroke="white" stroke-width="1.5" stroke-miterlimit="10"/>
<path d="M8.08617 20.8798C9.0388 20.8798 9.81107 20.1159 9.81107 19.1735C9.81107 18.2312 9.0388 17.4673 8.08617 17.4673C7.13353 17.4673 6.36127 18.2312 6.36127 19.1735C6.36127 20.1159 7.13353 20.8798 8.08617 20.8798Z" fill="white"/>
<path d="M17.2858 20.8798C18.2384 20.8798 19.0107 20.1159 19.0107 19.1735C19.0107 18.2312 18.2384 17.4673 17.2858 17.4673C16.3331 17.4673 15.5609 18.2312 15.5609 19.1735C15.5609 20.1159 16.3331 20.8798 17.2858 20.8798Z" fill="white"/>
</svg>
