<svg width="15" height="20" viewBox="0 0 15 20" fill="none" xmlns="http://www.w3.org/2000/svg">
<path d="M13.9018 6.88174H13.9018L13.9017 6.87206C13.8806 5.23448 13.2099 3.67233 12.0372 2.52913C10.8668 1.38813 9.29189 0.757713 7.65767 0.775768C6.02346 0.757713 4.44854 1.38813 3.2781 2.52913C2.1054 3.67233 1.43476 5.23448 1.41364 6.87206L1.41357 6.87206V6.88174C1.41357 7.57396 1.64716 8.4816 1.96935 9.42051C2.2994 10.3823 2.75174 11.4582 3.2476 12.5186C4.2341 14.6281 5.42725 16.7486 6.23527 17.8442L6.23526 17.8442L6.23876 17.8489C6.40392 18.0692 6.61814 18.2481 6.86443 18.3712C7.11071 18.4944 7.3823 18.5586 7.65767 18.5586C7.93305 18.5586 8.20464 18.4944 8.45092 18.3712C8.69721 18.2481 8.91142 18.0692 9.07659 17.8489L9.07661 17.8489L9.08007 17.8442C9.8881 16.7486 11.0812 14.6281 12.0677 12.5186C12.5636 11.4582 13.0159 10.3823 13.346 9.42051C13.6682 8.4816 13.9018 7.57396 13.9018 6.88174Z" stroke="white" stroke-width="1.5" stroke-miterlimit="10"/>
<path d="M7.67741 9.79659C9.20003 9.79659 10.4343 8.56227 10.4343 7.03965C10.4343 5.51704 9.20003 4.28271 7.67741 4.28271C6.15479 4.28271 4.92047 5.51704 4.92047 7.03965C4.92047 8.56227 6.15479 9.79659 7.67741 9.79659Z" fill="white"/>
</svg>
