<svg width="19" height="26" viewBox="0 0 19 26" fill="none" xmlns="http://www.w3.org/2000/svg">
<path d="M17.0574 9.24944H17.0575L17.0573 9.23655C17.0302 7.13082 16.1678 5.12209 14.6598 3.65207C13.1549 2.18498 11.1299 1.37436 9.0287 1.39745C6.92746 1.37436 4.90249 2.18498 3.39755 3.65207C1.88961 5.12209 1.02724 7.13082 1.00008 9.23655L1 9.23654V9.24944C1 10.1422 1.30084 11.3088 1.71321 12.5105C2.13606 13.7427 2.71536 15.1206 3.35012 16.4779C4.61266 19.1777 6.14038 21.8932 7.17639 23.2979L7.17637 23.298L7.18104 23.3042C7.39612 23.5911 7.67506 23.824 7.99576 23.9844C8.31647 24.1448 8.67012 24.2283 9.0287 24.2283C9.38728 24.2283 9.74093 24.1448 10.0616 23.9844C10.3823 23.824 10.6613 23.5911 10.8764 23.3042L10.8764 23.3042L10.881 23.2979C11.917 21.8932 13.4447 19.1777 14.7073 16.4779C15.342 15.1206 15.9213 13.7427 16.3442 12.5105C16.7566 11.3088 17.0574 10.1422 17.0574 9.24944Z" stroke="#E30613" stroke-width="2" stroke-miterlimit="10"/>
<path d="M9.05398 12.9778C11.0019 12.9778 12.581 11.3987 12.581 9.45083C12.581 7.50292 11.0019 5.92383 9.05398 5.92383C7.10607 5.92383 5.52698 7.50292 5.52698 9.45083C5.52698 11.3987 7.10607 12.9778 9.05398 12.9778Z" fill="#E30613"/>
</svg>
