<svg width="200" height="34" viewBox="0 0 200 34" fill="none" xmlns="http://www.w3.org/2000/svg">
<path d="M44.5932 13.4173H40.5396V10.1357H52.3927V13.4173H48.3393V23.6475H44.5932V13.4173Z" fill="white"/>
<path d="M54.3618 10.1357H65.2293V13.3191H58.068V15.3673H64.5532V18.3216H58.068V20.4631H65.3264V23.6475H54.3618V10.1357Z" fill="white"/>
<path d="M71.4922 16.7759L67.0511 10.1357H71.3569L73.7501 13.938L76.1644 10.1357H80.3714L75.933 16.7377L80.5659 23.6475H76.2605L73.6727 19.5756L71.0675 23.6475H66.8589L71.4922 16.7759Z" fill="white"/>
<path d="M82.3364 10.1357H86.0815V15.193H90.8887V10.1357H94.6338V23.6475H90.8887V18.5125H86.0815V23.6475H82.3364V10.1357Z" fill="white"/>
<path d="M96.8828 16.8925C96.8828 13.0111 100.01 9.86523 104.18 9.86523C108.35 9.86523 111.438 12.9738 111.438 16.8925C111.438 20.7726 108.311 23.9194 104.142 23.9194C99.9705 23.9194 96.8828 20.8099 96.8828 16.8925ZM107.616 16.8925C107.616 14.9425 106.207 13.2425 104.142 13.2425C102.094 13.2425 100.724 14.9033 100.724 16.8925C100.724 18.8425 102.134 20.5395 104.18 20.5395C106.245 20.5395 107.616 18.8808 107.616 16.8925Z" fill="white"/>
<path d="M113.705 10.1357H117.451V15.193H122.257V10.1357H126.004V23.6475H122.257V18.5125H117.451V23.6475H113.705V10.1357Z" fill="white"/>
<path d="M128.917 10.1357H132.624V17.7406L137.856 10.1357H141.348V23.6475H137.643V16.0426L132.41 23.6475H128.917V10.1357Z" fill="white"/>
<path d="M144.264 10.1357H148.009V15.6183L152.661 10.1357H157.102L151.986 15.9452L157.274 23.6475H152.777L149.381 18.6295L148.009 20.1532V23.6475H144.264V10.1357Z" fill="white"/>
<path d="M157.303 16.8925C157.303 13.0111 160.429 9.86523 164.598 9.86523C168.769 9.86523 171.859 12.9738 171.859 16.8925C171.859 20.7726 168.73 23.9194 164.561 23.9194C160.39 23.9194 157.303 20.8099 157.303 16.8925ZM168.034 16.8925C168.034 14.9425 166.627 13.2425 164.561 13.2425C162.513 13.2425 161.144 14.9033 161.144 16.8925C161.144 18.8425 162.552 20.5395 164.598 20.5395C166.664 20.5395 168.034 18.8808 168.034 16.8925Z" fill="white"/>
<path d="M175.173 10.1357V16.0633C175.173 17.4643 175.031 19.4911 174.107 20.2077C173.639 20.5529 173.083 20.7587 172.503 20.8013V23.9867H172.858C174.013 23.9606 175.145 23.6609 176.162 23.1122C178.42 21.6782 178.699 18.9507 178.699 15.8694V13.4173H181.932V23.6475H185.677V10.1357H175.173Z" fill="white"/>
<path d="M188.591 10.1357H192.335V14.381H194.381C197.625 14.381 200 15.9266 200 18.975C200 21.8917 197.876 23.6475 194.576 23.6475H188.591V10.1357ZM194.286 20.5017C195.52 20.5017 196.255 19.9417 196.255 18.8806C196.255 17.9345 195.52 17.3166 194.305 17.3166H192.335V20.5017H194.286Z" fill="white"/>
<path d="M8.67242 23.0765V12.8237H4.80477V10.136H17.9254L24.1498 18.6896V7.59876L31.7483 0H6.75699L0 6.75664V31.7483L0.000681045 31.7489V31.7483L8.67242 23.0765Z" fill="white"/>
<path d="M27.027 8.79112V23.6478H24.5554L18.3307 15.0942V23.6478H15.4533V12.8239H11.587V24.2304L2.035 33.7824H2.03296L2.035 33.7844L27.027 33.7824L33.7829 27.0271V2.03516L27.027 8.79112Z" fill="white"/>
</svg>
