<svg width="136" height="24" viewBox="0 0 136 24" fill="none" xmlns="http://www.w3.org/2000/svg">
<path d="M30.7707 9.62522H28.0422V7.4165H36.0203V9.62522H33.2921V16.511H30.7707V9.62522Z" fill="white"/>
<path d="M37.3457 7.4165H44.6604V9.55919H39.8403V10.9377H44.2053V12.9262H39.8403V14.3677H44.7257V16.511H37.3457V7.4165Z" fill="white"/>
<path d="M48.8759 11.8859L45.8867 7.4165H48.7848L50.3957 9.97574L52.0207 7.4165H54.8523L51.8649 11.8601L54.9832 16.511H52.0854L50.3435 13.7703L48.5901 16.511H45.7573L48.8759 11.8859Z" fill="white"/>
<path d="M56.1748 7.4165H58.6955V10.8205H61.9312V7.4165H64.4519V16.511H61.9312V13.0547H58.6955V16.511H56.1748V7.4165Z" fill="white"/>
<path d="M65.9658 11.9638C65.9658 9.35129 68.0707 7.23389 70.8777 7.23389C73.6838 7.23389 75.7627 9.32622 75.7627 11.9638C75.7627 14.5754 73.6576 16.6935 70.8517 16.6935C68.0441 16.6935 65.9658 14.6005 65.9658 11.9638ZM73.1899 11.9638C73.1899 10.6513 72.2417 9.50708 70.8517 9.50708C69.4736 9.50708 68.5515 10.6249 68.5515 11.9638C68.5515 13.2763 69.5003 14.4185 70.8777 14.4185C72.267 14.4185 73.1899 13.3021 73.1899 11.9638Z" fill="white"/>
<path d="M77.2883 7.4165H79.81V10.8205H83.0447V7.4165H85.5664V16.511H83.0447V13.0547H79.81V16.511H77.2883V7.4165Z" fill="white"/>
<path d="M87.5271 7.4165H90.0223V12.5352L93.544 7.4165H95.8946V16.511H93.4003V11.3923L89.8782 16.511H87.5271V7.4165Z" fill="white"/>
<path d="M97.8572 7.4165H100.377V11.1067L103.509 7.4165H106.498L103.054 11.3268L106.614 16.511H103.587L101.301 13.1335L100.377 14.1591V16.511H97.8572V7.4165Z" fill="white"/>
<path d="M106.633 11.9638C106.633 9.35129 108.738 7.23389 111.544 7.23389C114.351 7.23389 116.43 9.32622 116.43 11.9638C116.43 14.5754 114.325 16.6935 111.519 16.6935C108.711 16.6935 106.633 14.6005 106.633 11.9638ZM113.856 11.9638C113.856 10.6513 112.909 9.50708 111.519 9.50708C110.14 9.50708 109.219 10.6249 109.219 11.9638C109.219 13.2763 110.166 14.4185 111.544 14.4185C112.934 14.4185 113.856 13.3021 113.856 11.9638Z" fill="white"/>
<path d="M118.662 7.4165V11.4062C118.662 12.3492 118.566 13.7134 117.944 14.1958C117.629 14.4281 117.255 14.5666 116.864 14.5953V16.7393H117.103C117.88 16.7218 118.643 16.52 119.327 16.1507C120.847 15.1855 121.035 13.3497 121.035 11.2757V9.62522H123.21V16.511H125.731V7.4165H118.662Z" fill="white"/>
<path d="M127.693 7.4165H130.213V10.2739H131.59C133.774 10.2739 135.372 11.3142 135.372 13.366C135.372 15.3292 133.943 16.511 131.721 16.511H127.693V7.4165ZM131.526 14.3936C132.357 14.3936 132.851 14.0167 132.851 13.3025C132.851 12.6657 132.357 12.2498 131.538 12.2498H130.213V14.3936H131.526Z" fill="white"/>
<path d="M6.5931 16.1261V9.22515H3.98986V7.41608H12.8211L17.0106 13.1733V5.70832L22.125 0.59375H5.30385L0.755859 5.14151V21.9629L0.756318 21.9633V21.9629L6.5931 16.1261Z" fill="white"/>
<path d="M18.9472 6.5102V16.5099H17.2837L13.094 10.7527V16.5099H11.1572V9.2246H8.5549V16.9021L2.12564 23.3313H2.12427L2.12564 23.3327L18.9472 23.3313L23.4945 18.7845V1.96289L18.9472 6.5102Z" fill="white"/>
</svg>
