<svg width="154" height="26" viewBox="0 0 154 26" fill="none" xmlns="http://www.w3.org/2000/svg">
<path d="M34.7896 10.3487H31.6958V7.84424H40.7421V10.3487H37.6486V18.1565H34.7896V10.3487Z" fill="white"/>
<path d="M42.245 7.84424H50.5391V10.2738H45.0736V11.837H50.0231V14.0917H45.0736V15.7262H50.6132V18.1565H42.245V7.84424Z" fill="white"/>
<path d="M55.319 12.9121L51.9295 7.84424H55.2157L57.0423 10.7461L58.8849 7.84424H62.0956L58.7082 12.8829L62.2441 18.1565H58.9582L56.9831 15.0488L54.9949 18.1565H51.7828L55.319 12.9121Z" fill="white"/>
<path d="M63.5955 7.84424H66.4537V11.704H70.1226V7.84424H72.9809V18.1565H70.1226V14.2374H66.4537V18.1565H63.5955V7.84424Z" fill="white"/>
<path d="M74.6973 13.0005C74.6973 10.0381 77.084 7.63721 80.2669 7.63721C83.4487 7.63721 85.806 10.0097 85.806 13.0005C85.806 15.9618 83.419 18.3634 80.2374 18.3634C77.0538 18.3634 74.6973 15.9902 74.6973 13.0005ZM82.8886 13.0005C82.8886 11.5122 81.8135 10.2148 80.2374 10.2148C78.6748 10.2148 77.6291 11.4823 77.6291 13.0005C77.6291 14.4887 78.705 15.7838 80.2669 15.7838C81.8422 15.7838 82.8886 14.5179 82.8886 13.0005Z" fill="white"/>
<path d="M87.5359 7.84424H90.3952V11.704H94.0631V7.84424H96.9223V18.1565H94.0631V14.2374H90.3952V18.1565H87.5359V7.84424Z" fill="white"/>
<path d="M99.1458 7.84424H101.975V13.6483L105.968 7.84424H108.634V18.1565H105.805V12.3524L101.812 18.1565H99.1458V7.84424Z" fill="white"/>
<path d="M110.859 7.84424H113.717V12.0286L117.267 7.84424H120.656L116.752 12.2781L120.788 18.1565H117.356L114.764 14.3267L113.717 15.4896V18.1565H110.859V7.84424Z" fill="white"/>
<path d="M120.81 13.0005C120.81 10.0381 123.196 7.63721 126.378 7.63721C129.561 7.63721 131.919 10.0097 131.919 13.0005C131.919 15.9618 129.532 18.3634 126.35 18.3634C123.167 18.3634 120.81 15.9902 120.81 13.0005ZM129 13.0005C129 11.5122 127.927 10.2148 126.35 10.2148C124.787 10.2148 123.742 11.4823 123.742 13.0005C123.742 14.4887 124.817 15.7838 126.378 15.7838C127.955 15.7838 129 14.5179 129 13.0005Z" fill="white"/>
<path d="M134.449 7.84424V12.3682C134.449 13.4374 134.341 14.9843 133.635 15.5312C133.278 15.7947 132.854 15.9517 132.411 15.9842V18.4154H132.682C133.563 18.3954 134.428 18.1667 135.203 17.7479C136.927 16.6535 137.14 14.5719 137.14 12.2202V10.3487H139.607V18.1565H142.466V7.84424H134.449Z" fill="white"/>
<path d="M144.689 7.84424H147.547V11.0842H149.109C151.584 11.0842 153.397 12.2638 153.397 14.5904C153.397 16.8165 151.776 18.1565 149.257 18.1565H144.689V7.84424ZM149.035 15.7556C149.978 15.7556 150.538 15.3282 150.538 14.5183C150.538 13.7963 149.978 13.3247 149.05 13.3247H147.547V15.7556H149.035Z" fill="white"/>
<path d="M7.37469 17.72V9.89504H4.42288V7.84374H14.4366L19.1871 14.3719V5.90732L24.9863 0.10791H5.91282L0.755859 5.26461V24.3383L0.756379 24.3389V24.3383L7.37469 17.72Z" fill="white"/>
<path d="M21.3829 6.81732V18.156H19.4966L14.7459 11.6278V18.156H12.5498V9.89517H9.59906V18.6006L2.30893 25.8908H2.30737L2.30893 25.8923L21.3829 25.8908L26.5391 20.7351V1.66113L21.3829 6.81732Z" fill="white"/>
</svg>
