<svg width="166" height="169" viewBox="0 0 166 169" fill="none" xmlns="http://www.w3.org/2000/svg">
<path d="M14.542 64.4468V138.065L71.1492 168.128L148.934 125.783V75.9748L37.846 58.4688L14.542 64.4468Z" fill="#EFD6B0"/>
<path d="M1 79.5687L4.937 82.8747L16.589 63.3497L37.846 58.4687L59.418 82.5597L68.865 124.602L164.443 69.0187L151.374 31.2287L127.44 0.680664L105.553 1.78366L14.542 58.4687L1 79.5687Z" fill="#8C6D63"/>
<path d="M39.106 52.0127L64 79.6807L151.374 31.2287L127.44 0.680664L39.106 52.0127Z" fill="#B6968B"/>
<path d="M14.542 66.7793V138.064L71.1492 168.127L148.934 125.782V77.6583" stroke="black" stroke-miterlimit="10"/>
<path d="M73.432 121.768L164.443 69.0187L151.374 31.2287L127.44 0.680664L105.553 1.78366L14.542 58.4687" stroke="black" stroke-miterlimit="10"/>
<path d="M1 79.5687L4.937 82.8747L16.589 63.3497L37.846 58.4687L59.418 82.5597L68.865 124.602L73.432 121.768L63.669 79.7257L39.106 52.0127L14.542 58.4687L1 79.5687Z" stroke="black" stroke-miterlimit="10"/>
<path d="M39.1055 52.0125C40.9725 50.9791 127.44 0.680664 127.44 0.680664" stroke="black" stroke-miterlimit="10"/>
<path d="M63.4998 79.681L151.374 31.2285" stroke="black" stroke-miterlimit="10"/>
<path d="M71.1609 168.269L71.1642 123.175" stroke="black" stroke-miterlimit="10"/>
<path d="M25.9951 90.6797V121.969L57.2021 138.978V107.101L25.9951 90.6797Z" fill="white" stroke="black" stroke-miterlimit="10"/>
<path d="M30.2811 92.9355V119.647L57.2021 133.297" fill="white"/>
<path d="M30.2811 92.9355V119.647L57.2021 133.297" stroke="black" stroke-miterlimit="10"/>
<path d="M25.9955 121.969L30.2815 119.647" stroke="black" stroke-miterlimit="10"/>
<path d="M129.903 89.3818V119.758L100.874 135.58V105.927L129.903 89.3818Z" fill="white" stroke="black" stroke-miterlimit="10"/>
<path d="M125.916 91.8936V117.598L100.874 130.296" fill="white"/>
<path d="M125.916 91.8936V117.598L100.874 130.296" stroke="black" stroke-miterlimit="10"/>
<path d="M129.903 119.757L125.916 117.598" stroke="black" stroke-miterlimit="10"/>
</svg>
