<svg width="201" height="174" viewBox="0 0 201 174" fill="none" xmlns="http://www.w3.org/2000/svg">
<path d="M11.8376 58.0886V128.047L66.1397 156.845C66.1397 156.845 148.54 112.953 148.54 111.522V49.9639H36.5889L11.8376 58.0886Z" fill="#EFD6B0"/>
<path d="M1.45514 53.8351V59.4921L34.5051 55.0261L68.1491 96.7101L159.258 43.7121L159.401 38.1431L125.018 0.539062H94.7971L1.45514 53.8351Z" fill="#8C6D63"/>
<path d="M1.45514 53.8351L36.5891 49.9641L125.018 0.539062H94.7971L1.45514 53.8351Z" fill="#B6968B"/>
<path d="M1.45514 53.8354L36.5891 49.9644L69.0431 89.5644L159.258 38.6504V43.7124L68.1491 96.7104L34.5051 55.0264L1.45514 59.4924V53.8354Z" stroke="black" stroke-miterlimit="10"/>
<path d="M0.785156 53.4631L94.7972 0.539062H125.018L159.401 38.1431" stroke="black" stroke-miterlimit="10"/>
<path d="M36.5889 49.9642L125.018 0.539062" stroke="black" stroke-miterlimit="10"/>
<path d="M11.8372 58.0889V128.047L66.1402 156.845L148.54 111.522V49.9639" stroke="black" stroke-miterlimit="10"/>
<path d="M66.6291 94.8262V156.845" stroke="black" stroke-miterlimit="10"/>
<path d="M24.0001 84.0557V113.638L53.5041 129.72V99.5807L24.0001 84.0557Z" fill="white" stroke="black" stroke-miterlimit="10"/>
<path d="M28.0521 86.1895V111.443L53.5041 124.349" fill="white"/>
<path d="M28.0521 86.1895V111.443L53.5041 124.349" stroke="black" stroke-miterlimit="10"/>
<path d="M24.0002 113.638L28.0523 111.443" stroke="black" stroke-miterlimit="10"/>
<path d="M190.846 90.7483V148.126L143.204 173.392C143.204 173.392 90.2794 144.519 90.2794 143.264V95.0631L169.13 83.6201L190.846 90.7483Z" fill="#EFD6B0"/>
<path d="M199.954 87.0163V91.9793L170.959 88.0603L141.448 125.712L80.8832 88.8503L80.5812 82.1543L102.979 40.0273L137.43 49.8933L199.954 87.0163Z" fill="#8C6D63"/>
<path d="M169.184 83.5826L140.668 118.542L80.5822 83.1116L102.961 40.1445L169.184 83.5826Z" fill="#B6968B"/>
<path d="M199.954 87.0161L169.13 83.6201L140.657 118.362L80.8752 83.3291L80.7272 89.2921L141.292 126.154L170.959 88.0601L199.954 91.9791V87.0161Z" stroke="black" stroke-miterlimit="10"/>
<path d="M200.206 87.0163L137.43 49.8933L102.979 40.0273L80.7272 82.9393" stroke="black" stroke-miterlimit="10"/>
<path d="M169.13 83.6199L102.98 40.0273" stroke="black" stroke-miterlimit="10"/>
<path d="M190.846 90.748V148.125L143.204 173.391L90.2792 143.263V95.063" stroke="black" stroke-miterlimit="10"/>
<path d="M142.775 124.02V173.391" stroke="black" stroke-miterlimit="10"/>
<path d="M180.175 113.53V153.593L154.289 167.702V127.151L180.175 113.53Z" fill="white" stroke="black" stroke-miterlimit="10"/>
<path d="M176.62 115.401V151.506L154.289 162.828" fill="white"/>
<path d="M176.62 115.401V151.506L154.289 162.828" stroke="black" stroke-miterlimit="10"/>
<path d="M180.175 153.682L176.62 151.757" stroke="black" stroke-miterlimit="10"/>
<path d="M102.979 111.443V137.397L128.865 151.506V125.064L102.979 111.443Z" fill="white" stroke="black" stroke-miterlimit="10"/>
<path d="M106.535 113.314V135.471L128.865 146.794" fill="white"/>
<path d="M106.535 113.314V135.471L128.865 146.794" stroke="black" stroke-miterlimit="10"/>
<path d="M102.98 137.396L106.535 135.471" stroke="black" stroke-miterlimit="10"/>
</svg>
