<svg width="160" height="158" viewBox="0 0 160 158" fill="none" xmlns="http://www.w3.org/2000/svg">
<path d="M11.2974 58.0495V128.008L65.5995 156.806C65.5995 156.806 147.999 112.913 147.999 111.483V49.9248H36.0486L11.2974 58.0495Z" fill="#EFD6B0"/>
<path d="M0.915039 53.796V59.453L33.965 54.987L67.609 96.671L158.718 43.673L159.053 37.271L124.478 0.5H94.257L0.915039 53.796Z" fill="#8C6D63"/>
<path d="M0.915039 53.796L36.049 49.925L124.478 0.5H94.257L0.915039 53.796Z" fill="#B6968B"/>
<path d="M0.915161 53.7963L36.0492 49.9253L68.5032 89.5253L158.718 38.6113V43.6733L67.6092 96.6713L33.9652 54.9873L0.915161 59.4533V53.7963Z" stroke="black" stroke-miterlimit="10"/>
<path d="M0.245117 53.424L94.2571 0.5H124.478L159.053 37.271" stroke="black" stroke-miterlimit="10"/>
<path d="M36.0488 49.9251L124.478 0.5" stroke="black" stroke-miterlimit="10"/>
<path d="M11.2971 58.0498V128.008L65.6001 156.806L148 111.483V49.9248" stroke="black" stroke-miterlimit="10"/>
<path d="M66.089 94.7871V156.806" stroke="black" stroke-miterlimit="10"/>
<path d="M23.46 84.0166V113.599L52.964 129.681V99.5416L23.46 84.0166Z" fill="white" stroke="black" stroke-miterlimit="10"/>
<path d="M27.512 86.1504V111.404L52.964 124.31" fill="white"/>
<path d="M27.512 86.1504V111.404L52.964 124.31" stroke="black" stroke-miterlimit="10"/>
<path d="M23.46 113.599L27.5121 111.404" stroke="black" stroke-miterlimit="10"/>
<path d="M104.571 88.457V118.038L75.067 134.12V103.981L104.571 88.457Z" fill="white" stroke="black" stroke-miterlimit="10"/>
<path d="M100.519 90.5889V115.843L75.067 128.749" fill="white"/>
<path d="M100.519 90.5889V115.843L75.067 128.749" stroke="black" stroke-miterlimit="10"/>
<path d="M104.571 118.039L100.519 115.844" stroke="black" stroke-miterlimit="10"/>
<path d="M140.47 67.791V97.373L110.966 114.454V84.316L140.47 67.791Z" fill="white" stroke="black" stroke-miterlimit="10"/>
<path d="M136.418 69.9229V95.1779L110.966 109.083" fill="white"/>
<path d="M136.418 69.9229V95.1779L110.966 109.083" stroke="black" stroke-miterlimit="10"/>
<path d="M140.47 97.3726L136.418 95.1777" stroke="black" stroke-miterlimit="10"/>
</svg>
