<svg width="168" height="163" viewBox="0 0 168 163" fill="none" xmlns="http://www.w3.org/2000/svg">
<path d="M13.969 71.4493V131.437L69.474 161.95L155.894 114.02V53.8263L69.474 38.3193L13.969 71.4493Z" fill="#EFD6B0"/>
<path d="M1.01904 57.1551L1.65304 64.7671L71.484 102.854L166.836 48.3671V42.1151L99.397 0.580078L1.01904 57.1551Z" fill="#8C6D63"/>
<path d="M71.707 102.854L69.474 38.3191L96.718 21.3471L99.397 0.580078L1.01904 57.1551L1.14204 64.4461L71.707 102.854Z" fill="#B6968B"/>
<path d="M1.14197 58.6402L71.707 97.0482L166.836 42.7852V48.3672L71.484 102.854L1.14197 64.4462V58.6402Z" stroke="black" stroke-miterlimit="10"/>
<path d="M13.969 71.449V131.437L69.697 161.95L155.894 114.02V55.29" stroke="black" stroke-miterlimit="10"/>
<path d="M69.4742 101.78V161.951" stroke="black" stroke-miterlimit="10"/>
<path d="M71.7073 97.0479V102.854" stroke="black" stroke-miterlimit="10"/>
<path d="M71.707 95.9743L69.474 38.3193L0.249023 57.5973" stroke="black" stroke-miterlimit="10"/>
<path d="M0.249268 57.5976L99.3972 0.580078C99.3972 0.580078 166.687 40.9985 167.357 41.4451" stroke="black" stroke-miterlimit="10"/>
<path d="M69.4742 38.3188C70.132 37.8545 96.7176 21.3475 96.7176 21.3475L99.3973 0.580078" stroke="black" stroke-miterlimit="10"/>
<path d="M96.7175 21.3477L166.836 42.1151" stroke="black" stroke-miterlimit="10"/>
<path d="M26.4241 90.9941V120.576L55.9281 136.657V106.518L26.4241 90.9941Z" fill="white" stroke="black" stroke-miterlimit="10"/>
<path d="M30.4771 93.126V118.381L55.9281 131.286" fill="white"/>
<path d="M30.4771 93.126V118.381L55.9281 131.286" stroke="black" stroke-miterlimit="10"/>
<path d="M26.4244 120.576L30.4766 118.381" stroke="black" stroke-miterlimit="10"/>
<path d="M110.952 94.083V123.665L81.4481 139.746V109.608L110.952 94.083Z" fill="white" stroke="black" stroke-miterlimit="10"/>
<path d="M106.899 96.2148V121.47L81.4481 134.375" fill="white"/>
<path d="M106.899 96.2148V121.47L81.4481 134.375" stroke="black" stroke-miterlimit="10"/>
<path d="M110.952 123.665L106.9 121.47" stroke="black" stroke-miterlimit="10"/>
<path d="M146.851 73.418V102.999L117.347 120.081V89.942L146.851 73.418Z" fill="white" stroke="black" stroke-miterlimit="10"/>
<path d="M142.799 75.5498V100.804L117.347 114.71" fill="white"/>
<path d="M142.799 75.5498V100.804L117.347 114.71" stroke="black" stroke-miterlimit="10"/>
<path d="M146.851 103L142.799 100.805" stroke="black" stroke-miterlimit="10"/>
</svg>
