<svg width="163" height="163" viewBox="0 0 163 163" fill="none" xmlns="http://www.w3.org/2000/svg">
<path d="M15.655 59.3523V128.806L80.315 162.219L149.56 124.784V54.4893L15.655 59.3523Z" fill="#EFD6B0"/>
<path d="M0.5 46.4999L0.713 53.7079L82.917 96.7639L162.306 51.1879V44.1789L83.089 1.25586L0.5 46.4999Z" fill="#8C6D63"/>
<path d="M82.6569 96.764L82.9169 88.003L82.6069 1L1.13789 45.624L0.712891 53.708L82.6569 96.764Z" fill="#B6968B"/>
<path d="M0.713013 47.1997L82.917 90.2557L162.306 44.9297V51.1877L82.657 96.7637L0.713013 53.7077V47.1997Z" stroke="black" stroke-miterlimit="10"/>
<path d="M15.655 61.5592V128.806L80.576 162.219L149.56 124.784V58.9492" stroke="black" stroke-miterlimit="10"/>
<path d="M80.3153 95.5342V162.219" stroke="black" stroke-miterlimit="10"/>
<path d="M82.9167 90.2559V96.7643" stroke="black" stroke-miterlimit="10"/>
<path d="M0.5 46.5L82.607 1L162.5 44.5" stroke="black" stroke-miterlimit="10"/>
<path d="M0.500244 46.4998L82.607 22.5898L161.897 44.4048" stroke="black" stroke-miterlimit="10"/>
<path d="M82.6074 1V21.6219L83 90" stroke="black" stroke-miterlimit="10"/>
<path d="M31.3379 84.7637V114.346L60.8419 130.428V100.289L31.3379 84.7637Z" fill="white" stroke="black" stroke-miterlimit="10"/>
<path d="M35.3899 86.8955V112.151L60.8419 125.057" fill="white"/>
<path d="M35.3899 86.8955V112.151L60.8419 125.057" stroke="black" stroke-miterlimit="10"/>
<path d="M31.3381 114.345L35.3903 112.15" stroke="black" stroke-miterlimit="10"/>
<path d="M132.045 84.7637V114.346L102.541 130.428V100.289L132.045 84.7637Z" fill="white" stroke="black" stroke-miterlimit="10"/>
<path d="M127.993 86.8955V112.151L102.541 125.057" fill="white"/>
<path d="M127.993 86.8955V112.151L102.541 125.057" stroke="black" stroke-miterlimit="10"/>
<path d="M132.045 114.345L127.993 112.15" stroke="black" stroke-miterlimit="10"/>
</svg>
