<svg width="165" height="169" viewBox="0 0 165 169" fill="none" xmlns="http://www.w3.org/2000/svg">
<path d="M10.688 68.2842V132.367L67.492 167.721L146.542 120.093V79.0902L10.688 68.2842Z" fill="#EFD6B0"/>
<path d="M0.5 53.5102V59.6042L77.476 125.221L164.174 70.1392V65.2212L91.907 0.616211L0.5 53.5102Z" fill="#8C6D63"/>
<path d="M1.39307 53.6142L77.4761 118.591L163.225 64.9972L91.9071 0.616211L1.39307 53.6142Z" stroke="black" stroke-miterlimit="10"/>
<path d="M0.5 53.5098V59.6038L77.512 125.221L163.702 70.1388V65.2208" stroke="black" stroke-miterlimit="10"/>
<path d="M77.4758 118.591V125.221" stroke="black" stroke-miterlimit="10"/>
<path d="M10.688 68.2842V132.367L67.492 167.721L146.542 120.093V81.3462" stroke="black" stroke-miterlimit="10"/>
<path d="M67.4919 167.722V116.685" stroke="black" stroke-miterlimit="10"/>
<path d="M127.851 93.75V118.29L100.406 134.79V110.934L127.851 93.75Z" fill="white" stroke="black" stroke-miterlimit="10"/>
<path d="M124.082 96.126V116.248L100.406 129.793" fill="white"/>
<path d="M124.082 96.126V116.248L100.406 129.793" stroke="black" stroke-miterlimit="10"/>
<path d="M127.851 118.29L124.082 116.248" stroke="black" stroke-miterlimit="10"/>
<path d="M23.199 90.7188V120.3L50.988 138.367V108.229L23.199 90.7188Z" fill="white" stroke="black" stroke-miterlimit="10"/>
<path d="M27.251 92.8506V118.106L50.988 132.996" fill="white"/>
<path d="M27.251 92.8506V118.106L50.988 132.996" stroke="black" stroke-miterlimit="10"/>
<path d="M23.1985 120.3L27.2506 118.105" stroke="black" stroke-miterlimit="10"/>
</svg>
