<svg width="26" height="24" viewBox="0 0 26 24" fill="none" xmlns="http://www.w3.org/2000/svg">
<path d="M18.282 17.1187C18.282 17.1187 22.1453 17.0756 22.1453 12.8129V9.4975C22.1453 9.4975 22.0594 5.01953 17.6811 5.01953H0.382202V23.0606H4.93227V17.1187H13.6461L17.5952 23.0606H22.6604L18.282 17.1187ZM17.4664 12.0809C17.4664 13.3296 16.1787 13.1574 16.1787 13.1574H4.88935V8.98081H16.1357C17.4664 8.98081 17.4664 10.0572 17.4664 10.0572V12.0809Z" fill="#E30613"/>
<path d="M23.4545 5.27742C24.7702 5.27742 25.8368 4.20752 25.8368 2.88773C25.8368 1.56795 24.7702 0.498047 23.4545 0.498047C22.1388 0.498047 21.0721 1.56795 21.0721 2.88773C21.0721 4.20752 22.1388 5.27742 23.4545 5.27742Z" fill="#E30613"/>
</svg>
