<svg width="27" height="22" viewBox="0 0 27 22" fill="none" xmlns="http://www.w3.org/2000/svg">
<path d="M0.688232 9.59273C1.01109 9.37006 1.3049 9.06995 1.66109 8.93611C9.30938 6.06232 16.9619 3.19977 24.6186 0.348456C24.7178 0.31142 24.8167 0.2733 24.9172 0.24042C25.7114 -0.0192921 26.2711 0.463662 26.1035 1.27702C25.4368 4.51199 24.7666 7.74627 24.0931 10.9799C23.4757 13.9545 22.8578 16.929 22.2393 19.9035C22.2249 19.9727 22.2172 20.0433 22.2018 20.1123C21.9183 21.3873 21.0271 21.7361 19.973 20.9748C18.2679 19.7433 16.5658 18.5079 14.8665 17.2684C14.6814 17.1341 14.4937 17.0034 14.2505 16.8307C13.8051 17.2526 13.3607 17.6735 12.9171 18.0936C12.3261 18.6525 11.7382 19.2148 11.1425 19.7687C10.4137 20.4463 9.72235 20.278 9.40509 19.3367C8.689 17.2121 7.97635 15.0862 7.28198 12.9544C7.24788 12.8121 7.17501 12.6821 7.07148 12.5788C6.96795 12.4754 6.83781 12.4028 6.69554 12.3691C5.00552 11.8622 3.31503 11.3545 1.64128 10.7973C1.28805 10.6797 1.0041 10.3537 0.688232 10.1238V9.59273ZM10.2438 17.5581L10.3225 17.547C10.4321 16.5562 10.5195 15.5622 10.6653 14.5768C10.709 14.2762 10.8475 13.9974 11.0605 13.781C14.4055 10.7351 17.7605 7.70019 21.1256 4.67633C21.264 4.56718 21.3888 4.44166 21.4972 4.3025C21.5262 4.25346 21.5433 4.19823 21.547 4.14132C21.5506 4.08442 21.5408 4.02745 21.5182 3.97508C21.4785 3.93355 21.4294 3.90211 21.3751 3.88338C21.3207 3.86466 21.2627 3.85918 21.2059 3.8674C21.0556 3.91539 20.9144 3.98827 20.7883 4.08302C16.8297 6.61035 12.8704 9.13652 8.91037 11.6615C8.60809 11.8536 8.51611 12.0106 8.63311 12.3764C9.13836 13.956 9.60357 15.5483 10.0858 17.1353C10.1295 17.2789 10.1907 17.4173 10.2438 17.5581Z" fill="#E30613"/>
</svg>
