<svg width="32" height="23" viewBox="0 0 32 23" fill="none" xmlns="http://www.w3.org/2000/svg">
<path d="M31.3455 7.80719C31.2273 6.02459 31.2069 3.74565 30.0425 1.91295C29.4266 1.15172 28.5583 0.63665 27.5953 0.461239C26.3645 0.227636 21.1138 0.0429688 15.7025 0.0429688C10.279 0.0429688 5.04001 0.227636 3.81033 0.461239C3.02696 0.607593 2.30161 0.974604 1.71951 1.51915C0.443243 2.70289 0.350088 4.73189 0.157948 6.44111C-0.0526494 9.52191 -0.0526494 12.6135 0.157948 15.6943C0.192626 16.6591 0.336981 17.6167 0.588223 18.5488C0.758384 19.2705 1.10488 19.9386 1.59666 20.4934C2.17886 21.0674 2.92011 21.453 3.72416 21.6002C4.97888 21.8589 7.02021 21.9579 12.9969 22.068C17.9814 22.1478 22.3732 22.0633 27.5452 21.6742C28.3718 21.5323 29.1354 21.1417 29.7345 20.5545C30.1235 20.1674 30.4182 19.6957 30.5956 19.1762C31.0136 18.1428 31.1615 17.146 31.3455 14.3288C31.3944 13.4795 31.3944 8.65654 31.3455 7.80719ZM20.9171 10.7479L20.912 10.7452L20.9072 10.7479H20.9171C18.5433 12.0645 15.419 13.5406 12.4554 15.1526V6.31819L12.4682 6.3249V6.30596C15.2828 7.78186 18.0364 9.20772 20.912 10.7452L20.9293 10.7357L20.9171 10.7479Z" fill="white"/>
</svg>
