<svg width="24" height="24" viewBox="0 0 24 24" fill="none" xmlns="http://www.w3.org/2000/svg">
<path d="M12.3965 0.523438H14.5165C14.5865 0.528591 14.6565 0.537335 14.7266 0.538342C15.9605 0.536327 17.1935 0.606674 18.4192 0.749022C19.1913 0.834074 19.9488 1.02097 20.6718 1.30484C21.3802 1.56892 21.9928 2.03977 22.4302 2.6563C22.7152 3.08747 22.9356 3.55801 23.0844 4.05298C23.3854 5.09597 23.5562 6.1722 23.5929 7.25713C23.637 8.04352 23.6478 8.83177 23.6742 9.61916C23.6755 9.6595 23.6834 9.69962 23.6883 9.73984V11.8152C22.7676 11.7784 21.8462 11.7556 20.9266 11.7006C20.1458 11.6539 19.3663 11.5794 18.588 11.5C17.9802 11.4365 17.3808 11.3093 16.7997 11.1203C15.9799 10.8802 15.2279 10.4509 14.6044 9.86696C13.9809 9.28301 13.5033 8.56075 13.2101 7.75838C12.8897 6.86088 12.6929 5.92399 12.6249 4.97345C12.5665 4.38267 12.5209 3.78996 12.4926 3.19703C12.45 2.30634 12.4275 1.41468 12.3965 0.523438Z" fill="white"/>
<path d="M12.1287 23.3738H10.031C9.96098 23.3686 9.89101 23.3599 9.82093 23.3589C8.58326 23.3614 7.34651 23.2913 6.11707 23.1488C5.34143 23.0633 4.58044 22.876 3.85375 22.5917C3.28567 22.3748 2.77527 22.0298 2.36228 21.5835C1.99271 21.1496 1.71003 20.6486 1.52964 20.1079C1.19377 19.0987 1.00091 18.0475 0.956673 16.9848C0.898992 16.0989 0.88521 15.2102 0.851358 14.3228C0.849541 14.275 0.841862 14.2274 0.836914 14.1797V12.082C1.62028 12.111 2.40446 12.1261 3.18679 12.1726C4.05687 12.2242 4.92612 12.2952 5.7941 12.3755C6.40276 12.434 7.00401 12.5535 7.58879 12.7322C8.4376 12.9594 9.21924 13.3875 9.86763 13.9805C10.516 14.5736 11.0121 15.314 11.3139 16.1392C11.6369 17.0475 11.8343 17.9958 11.9006 18.9576C11.9579 19.5485 12.0035 20.1411 12.0322 20.734C12.0747 21.6135 12.0975 22.4938 12.1287 23.3738Z" fill="white"/>
<path d="M0.836914 11.8152V9.71753C0.842168 9.65126 0.851141 9.58505 0.852131 9.51872C0.849552 8.24014 0.927038 6.96266 1.08413 5.69377C1.17262 4.95958 1.3531 4.23944 1.62132 3.5503C1.85681 2.91231 2.25798 2.34856 2.78358 1.91702C3.24959 1.56455 3.77455 1.29771 4.33396 1.12897C5.36114 0.826878 6.42232 0.655506 7.49238 0.618912C8.24158 0.575772 8.99265 0.565245 9.74286 0.539448C9.83155 0.536397 9.92008 0.528882 10.0087 0.523438H12.1287C12.092 1.45513 12.0696 2.38767 12.0143 3.31826C11.9681 4.09539 11.8937 4.87131 11.8124 5.64574C11.7463 6.27209 11.6117 6.88929 11.411 7.48628C11.175 8.25433 10.7717 8.96048 10.2299 9.55383C9.68812 10.1472 9.02148 10.613 8.278 10.9176C7.30992 11.2943 6.28976 11.5201 5.25315 11.5873C4.66969 11.6444 4.08448 11.69 3.49896 11.7182C2.6121 11.7608 1.72431 11.7838 0.836914 11.8152Z" fill="white"/>
<path d="M14.4942 23.3738H12.3965C12.4039 23.1398 12.4095 22.9058 12.419 22.6719C12.4474 21.9703 12.4637 21.268 12.5104 20.5677C12.5619 19.7944 12.6316 19.022 12.7125 18.2512C12.7783 17.6247 12.913 17.0073 13.1141 16.4103C13.3656 15.5939 13.8055 14.8481 14.3982 14.233C14.991 13.618 15.7201 13.1509 16.5266 12.8695C17.41 12.5656 18.329 12.3778 19.2608 12.3105C19.8553 12.2522 20.4511 12.2082 21.0484 12.1785C21.9278 12.136 22.8082 12.1132 23.6883 12.082V14.1574C23.6825 14.2496 23.673 14.3418 23.6716 14.4341C23.6733 15.6941 23.5962 16.9529 23.4407 18.2032C23.3522 18.9373 23.1718 19.6574 22.9036 20.3466C22.6659 20.9918 22.2585 21.561 21.7242 21.9939C21.2806 22.3265 20.7837 22.5814 20.2548 22.748C19.2085 23.0646 18.1253 23.2428 17.0327 23.2782C16.2761 23.322 15.5176 23.332 14.76 23.3578C14.6713 23.3609 14.5828 23.3684 14.4942 23.3738Z" fill="white"/>
</svg>
