<svg width="19" height="28" viewBox="0 0 19 28" fill="none" xmlns="http://www.w3.org/2000/svg">
<path d="M18.1801 9.89643H18.1801L18.18 9.88998C18.1506 7.60664 17.2155 5.42848 15.5803 3.83447C13.9467 2.24193 11.748 1.36275 9.46686 1.38976C7.18576 1.36275 4.98702 2.24193 3.35339 3.83447C1.71826 5.42848 0.783154 7.60664 0.753704 9.88998H0.753662V9.89643C0.753662 10.8212 1.07214 12.0949 1.55087 13.4901C2.03484 14.9004 2.70154 16.4874 3.43688 18.0599C4.90409 21.1973 6.66759 24.3254 7.84042 25.9156L7.84041 25.9156L7.84275 25.9187C8.0318 26.171 8.27699 26.3757 8.55889 26.5167C8.8408 26.6577 9.15166 26.7311 9.46686 26.7311C9.78206 26.7311 10.0929 26.6577 10.3748 26.5167C10.6567 26.3757 10.9019 26.171 11.091 25.9188L11.0933 25.9156C12.2661 24.3254 14.0296 21.1973 15.4968 18.0599C16.2322 16.4874 16.8989 14.9004 17.3828 13.4901C17.8616 12.0949 18.1801 10.8212 18.1801 9.89643Z" stroke="#707070" stroke-miterlimit="10"/>
<path d="M9.49638 13.8009C11.5226 13.8009 13.1651 12.1583 13.1651 10.1321C13.1651 8.10593 11.5226 6.46338 9.49638 6.46338C7.47019 6.46338 5.82764 8.10593 5.82764 10.1321C5.82764 12.1583 7.47019 13.8009 9.49638 13.8009Z" stroke="#707070" stroke-miterlimit="10"/>
</svg>
