<svg width="30" height="30" viewBox="0 0 30 30" fill="none" xmlns="http://www.w3.org/2000/svg">
<path d="M6.9947 0.872559H3.1469C2.10439 0.872559 1.25928 1.71768 1.25928 2.76018V26.618C1.25928 27.6605 2.10439 28.5056 3.1469 28.5056H6.9947C8.0372 28.5056 8.88232 27.6605 8.88232 26.618V2.76018C8.88232 1.71768 8.0372 0.872559 6.9947 0.872559Z" stroke="#707070" stroke-miterlimit="10"/>
<path d="M16.2701 13.3461L22.852 9.36742C23.0642 9.23919 23.2995 9.15399 23.5446 9.1167C23.7896 9.07941 24.0396 9.09075 24.2803 9.15008C24.521 9.20941 24.7476 9.31556 24.9473 9.46248C25.1469 9.60939 25.3157 9.7942 25.4439 10.0063L27.4345 13.2992C27.6935 13.7277 27.7716 14.2414 27.6518 14.7275C27.532 15.2136 27.224 15.6322 26.7956 15.8912L8.88232 26.7195" stroke="#707070" stroke-miterlimit="10"/>
<path d="M8.88623 10.8463L13.4979 2.78236C13.6233 2.56853 13.7896 2.38149 13.9873 2.23193C14.185 2.08236 14.4102 1.97319 14.65 1.91066C14.8899 1.84813 15.1397 1.83345 15.3853 1.86747C15.6308 1.90149 15.8672 1.98354 16.0811 2.10894L19.4003 4.05536C19.6141 4.18076 19.8011 4.34704 19.9507 4.54472C20.1003 4.7424 20.2094 4.9676 20.272 5.20747C20.3345 5.44734 20.3492 5.69718 20.3152 5.94272C20.2811 6.18826 20.1991 6.42469 20.0737 6.63852L8.88623 25.9923" stroke="#707070" stroke-miterlimit="10"/>
<path d="M6.62427 28.5061H27.0163C27.5169 28.5061 27.9971 28.3072 28.351 27.9532C28.705 27.5992 28.9039 27.1191 28.9039 26.6185V22.7706C28.9039 22.27 28.705 21.7899 28.3511 21.4359C27.9971 21.0819 27.5169 20.883 27.0163 20.883H18.3791L15.2626 15.3984" stroke="#707070" stroke-miterlimit="10"/>
<path d="M1.25928 6.46191H8.88232" stroke="#707070" stroke-miterlimit="10"/>
<path d="M11.6528 6.354L18.293 10.0982" stroke="#707070" stroke-miterlimit="10"/>
<path d="M19.4373 11.4189L23.3518 17.9601" stroke="#707070" stroke-miterlimit="10"/>
<path d="M8.88232 11.3633L15.2626 14.961" stroke="#707070" stroke-miterlimit="10"/>
<path d="M8.7981 17.9702L12.4491 20.0289" stroke="#707070" stroke-miterlimit="10"/>
<path d="M1.25928 12.2031H8.88232" stroke="#707070" stroke-miterlimit="10"/>
<path d="M1.25928 17.9443H8.88232" stroke="#707070" stroke-miterlimit="10"/>
<path d="M5.14687 25.5599C5.73725 25.5599 6.21586 25.0812 6.21586 24.4909C6.21586 23.9005 5.73725 23.4219 5.14687 23.4219C4.55648 23.4219 4.07788 23.9005 4.07788 24.4909C4.07788 25.0812 4.55648 25.5599 5.14687 25.5599Z" stroke="#707070" stroke-miterlimit="10"/>
<path d="M11.8611 21.1152L13.5396 23.9041" stroke="#707070" stroke-miterlimit="10"/>
<path d="M23.1514 20.8828V28.5058" stroke="#707070" stroke-miterlimit="10"/>
<path d="M17.4102 21.4517V28.5057" stroke="#707070" stroke-miterlimit="10"/>
<path d="M11.6528 25.1108V28.5059" stroke="#707070" stroke-miterlimit="10"/>
</svg>
