<svg width="28" height="28" viewBox="0 0 28 28" fill="none" xmlns="http://www.w3.org/2000/svg">
<path d="M9.78467 1.01562H4.04423C2.34461 1.01562 0.966797 2.39344 0.966797 4.09306V9.8335C0.966797 11.5331 2.34461 12.9109 4.04423 12.9109H9.78467C11.4843 12.9109 12.8621 11.5331 12.8621 9.8335V4.09306C12.8621 2.39344 11.4843 1.01562 9.78467 1.01562Z" stroke="#707070" stroke-miterlimit="10"/>
<path d="M23.8262 1.01562H18.0857C16.3861 1.01562 15.0083 2.39344 15.0083 4.09306V9.8335C15.0083 11.5331 16.3861 12.9109 18.0857 12.9109H23.8262C25.5258 12.9109 26.9036 11.5331 26.9036 9.8335V4.09306C26.9036 2.39344 25.5258 1.01562 23.8262 1.01562Z" stroke="#707070" stroke-miterlimit="10"/>
<path d="M9.78467 14.814H4.04423C2.34461 14.814 0.966797 16.1918 0.966797 17.8914V23.6318C0.966797 25.3315 2.34461 26.7093 4.04423 26.7093H9.78467C11.4843 26.7093 12.8621 25.3315 12.8621 23.6318V17.8914C12.8621 16.1918 11.4843 14.814 9.78467 14.814Z" stroke="#707070" stroke-miterlimit="10"/>
<path d="M23.8262 14.814H18.0857C16.3861 14.814 15.0083 16.1918 15.0083 17.8914V23.6318C15.0083 25.3315 16.3861 26.7093 18.0857 26.7093H23.8262C25.5258 26.7093 26.9036 25.3315 26.9036 23.6318V17.8914C26.9036 16.1918 25.5258 14.814 23.8262 14.814Z" stroke="#707070" stroke-miterlimit="10"/>
<path d="M4.39722 6.96338H9.34864" stroke="#707070" stroke-miterlimit="10"/>
<path d="M6.87354 9.43873V4.4873" stroke="#707070" stroke-miterlimit="10"/>
<path d="M5.12329 22.5129L8.62448 19.0117" stroke="#707070" stroke-miterlimit="10"/>
<path d="M8.62448 22.5129L5.12329 19.0117" stroke="#707070" stroke-miterlimit="10"/>
<path d="M18.481 6.96338H23.4324" stroke="#707070" stroke-miterlimit="10"/>
<path d="M18.481 19.9365H23.4324" stroke="#707070" stroke-miterlimit="10"/>
<path d="M18.481 21.5869H23.4324" stroke="#707070" stroke-miterlimit="10"/>
</svg>
