<svg width="38" height="31" viewBox="0 0 38 31" fill="none" xmlns="http://www.w3.org/2000/svg">
<path d="M0.966797 6.54435L0.966797 27.3534C0.966797 28.5422 1.93047 29.5059 3.11922 29.5059L31.8705 29.5059C33.0593 29.5059 34.0229 28.5422 34.0229 27.3534V6.54435C34.0229 5.3556 33.0593 4.39193 31.8705 4.39193L3.11922 4.39193C1.93047 4.39193 0.966797 5.3556 0.966797 6.54435Z" stroke="#707070" stroke-miterlimit="10"/>
<path d="M3.81055 4.39149V3.16805C3.81055 2.88539 3.86622 2.60549 3.97439 2.34435C4.08256 2.0832 4.2411 1.84592 4.44097 1.64605C4.64085 1.44618 4.87813 1.28764 5.13927 1.17947C5.40041 1.0713 5.68031 1.01562 5.96297 1.01563H34.7143C34.9969 1.01562 35.2768 1.0713 35.538 1.17947C35.7991 1.28764 36.0364 1.44618 36.2363 1.64605C36.4361 1.84592 36.5947 2.0832 36.7029 2.34435C36.811 2.60549 36.8667 2.88539 36.8667 3.16805V23.9771C36.8667 24.548 36.6399 25.0955 36.2363 25.4991C35.8326 25.9028 35.2851 26.1296 34.7143 26.1296H34.0229" stroke="#707070" stroke-miterlimit="10"/>
<path d="M6.54907 24.3716H20.7096" stroke="#707070" stroke-miterlimit="10"/>
<path d="M14.7219 14.5481L21.288 8.94531L29.5282 17.3606L22.1044 24.3709L13.6605 15.5401L5.21606 24.3709" stroke="#707070" stroke-miterlimit="10"/>
<path d="M15.3753 22.2316H11.4946C11.4942 21.9765 11.5441 21.7238 11.6414 21.4881C11.7388 21.2523 11.8816 21.038 12.0618 20.8575C12.2421 20.677 12.4561 20.5338 12.6917 20.4361C12.9273 20.3384 13.1799 20.2881 13.435 20.2881C13.6901 20.2881 13.9426 20.3384 14.1782 20.4361C14.4139 20.5338 14.6279 20.677 14.8081 20.8575C14.9883 21.038 15.1312 21.2523 15.2285 21.4881C15.3259 21.7238 15.3757 21.9765 15.3753 22.2316Z" stroke="#707070" stroke-miterlimit="10"/>
<path d="M22.51 10.3916L16.3264 15.9143" stroke="#707070" stroke-miterlimit="10"/>
<path d="M23.9829 12.0068L17.7993 17.5296" stroke="#707070" stroke-miterlimit="10"/>
<path d="M25.4079 13.3677L19.2244 18.8904" stroke="#707070" stroke-miterlimit="10"/>
<path d="M26.7576 14.7686L20.574 20.2913" stroke="#707070" stroke-miterlimit="10"/>
<path d="M27.957 16.1284L21.7734 21.6512" stroke="#707070" stroke-miterlimit="10"/>
<path d="M11.9397 11.0801H13.5514L14.6893 10.1792H12.9352L11.9397 11.0801Z" stroke="#707070" stroke-miterlimit="10"/>
<path d="M11.1931 11.5376V15.9145" stroke="#707070" stroke-miterlimit="10"/>
<path d="M13.5237 11.1851V14.1726" stroke="#707070" stroke-miterlimit="10"/>
<path d="M15.6213 9.73438V11.8349" stroke="#707070" stroke-miterlimit="10"/>
</svg>
